<svg xmlns="http://www.w3.org/2000/svg" width="1440" height="264" fill="none"><g clip-path="url(#a)"><path fill="#003" d="M0 .392h1440v263H0z"/><path fill="url(#b)" fill-opacity=".4" d="M0 0h1440v263H0z" transform="translate(0 .392)"/><g filter="url(#c)"><path fill="url(#d)" d="m1460.93 317.688-363.88-56.847c-67.93-10.525-117.863-66.906-117.863-133.058 0-66.16 49.933-122.532 117.853-133.057l363.89-49.924v372.886Z"/></g><path fill="url(#e)" d="m1460.93 317.688-363.88-56.847c-67.93-10.525-117.863-66.906-117.863-133.057 0-66.16 49.933-122.533 117.853-133.058l363.89-49.924v372.886Z"/><g filter="url(#f)"><path fill="url(#g)" d="M523.303 443.336 730.74 195.881c38.648-46.236 109.258-56.03 166.643-23.122 57.393 32.912 84.594 98.797 64.211 155.499L846.775 628.835 523.303 443.336Z"/></g><path fill="url(#h)" d="M523.303 443.336 730.74 195.881c38.648-46.236 109.258-56.03 166.643-23.122 57.393 32.912 84.594 98.797 64.211 155.499L846.775 628.835 523.303 443.336Z"/><g filter="url(#i)"><path fill="url(#j)" d="M523.303-179.984 730.74 67.471c38.648 46.236 109.258 56.03 166.643 23.122 57.393-32.912 84.594-98.797 64.211-155.499L846.775-365.483 523.303-179.984Z"/></g><path fill="url(#k)" d="M523.303-179.984 730.74 67.471c38.648 46.236 109.258 56.03 166.643 23.122 57.393-32.912 84.594-98.797 64.211-155.499L846.775-365.483 523.303-179.984Z"/></g><defs><linearGradient id="d" x1="979.187" x2="1582.84" y1="130.918" y2="130.919" gradientUnits="userSpaceOnUse"><stop stop-color="#0025FF"/><stop offset=".665" stop-color="#27FFCB" stop-opacity=".78"/><stop offset="1" stop-color="#CEFF00"/></linearGradient><linearGradient id="e" x1="979.187" x2="1582.84" y1="130.918" y2="130.919" gradientUnits="userSpaceOnUse"><stop stop-color="#0025FF"/><stop offset=".789" stop-color="#27FFCB" stop-opacity=".78"/><stop offset="1" stop-color="#CEFF00"/></linearGradient><linearGradient id="g" x1="894.664" x2="632.347" y1="171.199" y2="628.627" gradientUnits="userSpaceOnUse"><stop stop-color="#0025FF"/><stop offset=".665" stop-color="#27FFCB" stop-opacity=".78"/><stop offset="1" stop-color="#CEFF00"/></linearGradient><linearGradient id="h" x1="894.664" x2="632.347" y1="171.199" y2="628.627" gradientUnits="userSpaceOnUse"><stop stop-color="#0025FF"/><stop offset=".665" stop-color="#27FFCB" stop-opacity=".78"/><stop offset="1" stop-color="#CEFF00"/></linearGradient><linearGradient id="j" x1="894.664" x2="632.347" y1="92.153" y2="-365.275" gradientUnits="userSpaceOnUse"><stop stop-color="#0025FF"/><stop offset=".665" stop-color="#27FFCB" stop-opacity=".78"/><stop offset="1" stop-color="#CEFF00"/></linearGradient><linearGradient id="k" x1="894.664" x2="632.347" y1="92.153" y2="-365.275" gradientUnits="userSpaceOnUse"><stop stop-color="#0025FF"/><stop offset=".665" stop-color="#27FFCB" stop-opacity=".78"/><stop offset="1" stop-color="#CEFF00"/></linearGradient><filter id="c" width="642.548" height="533.692" x="898.784" y="-135.601" color-interpolation-filters="sRGB" filterUnits="userSpaceOnUse"><feFlood flood-opacity="0" result="BackgroundImageFix"/><feBlend in="SourceGraphic" in2="BackgroundImageFix" result="shape"/><feGaussianBlur result="effect1_foregroundBlur_1_5875" stdDeviation="40.202"/></filter><filter id="f" width="605.827" height="636.276" x="442.9" y="72.961" color-interpolation-filters="sRGB" filterUnits="userSpaceOnUse"><feFlood flood-opacity="0" result="BackgroundImageFix"/><feBlend in="SourceGraphic" in2="BackgroundImageFix" result="shape"/><feGaussianBlur result="effect1_foregroundBlur_1_5875" stdDeviation="40.202"/></filter><filter id="i" width="605.827" height="636.276" x="442.9" y="-445.886" color-interpolation-filters="sRGB" filterUnits="userSpaceOnUse"><feFlood flood-opacity="0" result="BackgroundImageFix"/><feBlend in="SourceGraphic" in2="BackgroundImageFix" result="shape"/><feGaussianBlur result="effect1_foregroundBlur_1_5875" stdDeviation="40.202"/></filter><radialGradient id="b" cx="0" cy="0" r="1" gradientTransform="rotate(14.609 -72.778 1397.75) scale(925.834 5069.21)" gradientUnits="userSpaceOnUse"><stop stop-color="#003DFF"/><stop offset="1" stop-color="#003DFF" stop-opacity="0"/></radialGradient><clipPath id="a"><path fill="#fff" d="M0 .392h1440v263H0z"/></clipPath></defs></svg>