<svg xmlns="http://www.w3.org/2000/svg" width="88" height="35"><path fill-rule="evenodd" d="M3.537.823H1.845L1.202.6 1.066.343c0-.24.17-.343.525-.343h17.024c7.988 0 13.63 2.474 16.923 7.423a18.14 18.14 0 0 1 2.81 10.183 19.081 19.081 0 0 1-.931 5.948 17.876 17.876 0 0 1-2.979 5.383 14.745 14.745 0 0 1-5.076 3.909 16.436 16.436 0 0 1-7.074 1.474H.525C.169 34.286 0 34.286 0 33.994c0-.291.254-.343.728-.343l4.18-.257a2.119 2.119 0 0 0 1.32-.548l.423-.6a6.055 6.055 0 0 0 .254-1.869V2.95c-.005-1-.76-1.832-1.743-1.92L3.469.823h.068zm9.19.463l-.12.703v30.36c0 .342 0 .582.204.668l.694.103h2.25l5.196-.189c1.198-.11 2.383-.34 3.537-.685a9.487 9.487 0 0 0 2.589-1.389 14.17 14.17 0 0 0 2.15-2.417 16.153 16.153 0 0 0 2.758-6.48c.33-1.648.5-3.324.507-5.006a18.323 18.323 0 0 0-.626-4.577 17.612 17.612 0 0 0-2.775-6.188c-2.471-3.44-6.527-5.16-12.168-5.16h-3.385a.773.773 0 0 0-.778.257h-.034zm28.988 32.777c0-.206.136-.292.508-.292h1.185c.643-.085 1.049-.308 1.201-.668l.22-1.234V21.823a.965.965 0 0 0-.389-.857l-.897-.086-1.185.326h-.643c-.079-.206.175-.395.762-.566a15.702 15.702 0 0 0 3.706-1.457 9.651 9.651 0 0 1 1.32-.686h.508c.169 0 .254.377.254 1.012v12.617c-.039.468.1.934.389 1.303a3.23 3.23 0 0 0 2.132.462c.39 0 .592.086.626.275.034.188-.118.205-.321.205H42.02c-.203 0-.305-.085-.305-.222v-.086zm40.176-12.429a6.885 6.885 0 0 0-1.693 3.172v7.32a1.584 1.584 0 0 0 .677 1.423l1.05.188 1.083.12c.254 0 .355.086.355.223v.12l-.288.086h-9.172c-.27 0-.423-.086-.423-.223l.254-.206 1.523-.12a1.686 1.686 0 0 0 1.185-.634l.253-.772V22.046l-.169-.772-.288-.171a.756.756 0 0 0-.423-.172 1.975 1.975 0 0 0-.897.172l-.863.24-.49-.12v-.257l.727-.309a19.479 19.479 0 0 0 3.943-1.543l1.168-.651h.508l.203.446v3.788c.77-1.466 1.81-2.77 3.063-3.84a4.376 4.376 0 0 1 1.15-.566h.593c.455-.016.902.123 1.27.395a2.01 2.01 0 0 1 1.032 1.714 1.727 1.727 0 0 1-.525 1.44c-.257.26-.627.37-.982.291a1.112 1.112 0 0 1-.66-.342l-.44-.703c-.389-.549-.744-.72-1.167-.566a3.387 3.387 0 0 0-1.523 1.114h-.034zM46.352 7.474a2.085 2.085 0 0 0-1.557.652c-.453.405-.696 1-.66 1.611a1.918 1.918 0 0 0 .66 1.56c.407.428.971.664 1.557.652a2.152 2.152 0 0 0 1.557-.652c.423-.406.662-.97.66-1.56a2.243 2.243 0 0 0-.66-1.611 2.152 2.152 0 0 0-1.557-.652zm9.02 13.715a8.09 8.09 0 0 1 2.302-2.058 7.204 7.204 0 0 1 2.488-.96l3.147-.188c1.084.03 2.152.27 3.148.703a7.41 7.41 0 0 1 4.298 5.691 8.313 8.313 0 0 1-1.421 7.08 8.444 8.444 0 0 1-5.077 3.103 10.15 10.15 0 0 1-6.177-.429c-2.422-.987-4.109-3.25-4.383-5.88a8.76 8.76 0 0 1 1.692-7.062h-.017zm9.985-.772a4.438 4.438 0 0 0-3.943-1.543 4.206 4.206 0 0 0-3.385 2.64 9.957 9.957 0 0 0-.694 5.435 8.93 8.93 0 0 0 1.93 5.142 3.973 3.973 0 0 0 3.875 1.715 4.591 4.591 0 0 0 3.385-2.503c.711-1.77.934-3.701.643-5.589a8.986 8.986 0 0 0-1.862-5.245l.05-.052z"/></svg>