<svg width="580" height="580" viewBox="0 0 580 580" fill="none" xmlns="http://www.w3.org/2000/svg">
<g clip-path="url(#clip0_843_11287)">
<g filter="url(#filter0_f_843_11287)">
<rect x="75.3809" y="247.106" width="417.677" height="109.256" rx="22.7617" fill="url(#paint0_linear_843_11287)"/>
</g>
<g opacity="0.4" filter="url(#filter1_i_843_11287)">
<path fill-rule="evenodd" clip-rule="evenodd" d="M19.595 243.95C19.5213 243.803 19.4484 243.655 19.3764 243.507C9.15821 222.459 20.07 196.078 43.7486 184.582C67.0154 173.287 93.9515 180.567 104.576 200.792C112.116 191.198 123.827 185.036 136.976 185.036C153.925 185.036 168.483 195.273 174.803 209.902C181.855 206.423 189.909 204.451 198.461 204.451C226.245 204.451 248.768 225.262 248.768 250.934C248.768 276.605 226.245 297.416 198.461 297.416C194.859 297.416 191.345 297.066 187.956 296.401C181.199 309.911 167.232 319.188 151.098 319.188C143.66 319.188 136.683 317.217 130.661 313.768C124.333 328.38 109.784 338.603 92.8477 338.603C74.5521 338.603 59.0427 326.674 53.6732 310.169C49.8995 311.439 45.8585 312.127 41.6567 312.127C20.8595 312.127 4 295.268 4 274.471C4 261.913 10.1465 250.792 19.595 243.95Z" fill="url(#paint1_radial_843_11287)"/>
</g>
<g opacity="0.1" filter="url(#filter2_i_843_11287)">
<path fill-rule="evenodd" clip-rule="evenodd" d="M555.314 146.304C555.41 146.112 555.505 145.92 555.599 145.727C568.916 118.297 554.695 83.9165 523.837 68.9355C493.516 54.2152 458.414 63.7021 444.568 90.0588C434.74 77.5567 419.48 69.5269 402.344 69.5269C380.257 69.5269 361.285 82.8683 353.048 101.932C343.857 97.3981 333.361 94.8278 322.214 94.8278C286.006 94.8278 256.653 121.949 256.653 155.404C256.653 188.86 286.006 215.981 322.214 215.981C326.909 215.981 331.489 215.525 335.904 214.658C344.711 232.266 362.913 244.355 383.939 244.355C393.632 244.355 402.724 241.786 410.573 237.292C418.819 256.334 437.779 269.656 459.851 269.656C483.694 269.656 503.905 254.11 510.903 232.602C515.821 234.257 521.088 235.154 526.564 235.154C553.667 235.154 575.639 213.182 575.639 186.079C575.639 169.714 567.628 155.22 555.314 146.304Z" fill="url(#paint2_radial_843_11287)"/>
</g>
<g filter="url(#filter3_b_843_11287)">
<rect x="76.5195" y="247.106" width="417.677" height="109.256" rx="19.3211" fill="url(#paint3_linear_843_11287)" fill-opacity="0.5"/>
<path fill-rule="evenodd" clip-rule="evenodd" d="M124.549 285.635C116.735 285.635 110.4 291.97 110.4 299.785C110.4 307.599 116.735 313.934 124.549 313.934C132.364 313.934 138.698 307.599 138.698 299.785C138.698 291.97 132.364 285.635 124.549 285.635ZM107.473 299.785C107.473 290.353 115.118 282.708 124.549 282.708C133.98 282.708 141.626 290.353 141.626 299.785C141.626 309.216 133.98 316.861 124.549 316.861C115.118 316.861 107.473 309.216 107.473 299.785Z" fill="white"/>
<path fill-rule="evenodd" clip-rule="evenodd" d="M134.54 309.774C135.112 309.202 136.038 309.202 136.61 309.774L145.1 318.264C145.671 318.835 145.671 319.762 145.1 320.334C144.528 320.905 143.601 320.905 143.03 320.334L134.54 311.844C133.968 311.272 133.968 310.346 134.54 309.774Z" fill="white"/>
<path d="M177.669 313.357C175.417 313.357 173.505 312.941 171.931 312.111C170.379 311.258 169.199 310.056 168.39 308.504C167.581 306.952 167.177 305.116 167.177 302.996V288.799H172.554V303.193C172.554 304.242 172.751 305.16 173.144 305.947C173.559 306.712 174.139 307.302 174.882 307.717C175.647 308.133 176.576 308.34 177.669 308.34C178.783 308.34 179.712 308.133 180.456 307.717C181.221 307.302 181.8 306.712 182.193 305.947C182.587 305.182 182.783 304.264 182.783 303.193V288.799H188.161V302.996C188.161 305.116 187.756 306.952 186.947 308.504C186.139 310.056 184.958 311.258 183.406 312.111C181.855 312.941 179.942 313.357 177.669 313.357ZM192.796 312.734V294.766H196.96V302.471H196.664C196.664 300.635 196.894 299.105 197.353 297.881C197.834 296.657 198.555 295.739 199.517 295.127C200.479 294.515 201.648 294.209 203.025 294.209H203.255C205.353 294.209 206.949 294.897 208.042 296.274C209.156 297.63 209.714 299.695 209.714 302.471V312.734H204.468V302.176C204.468 301.214 204.184 300.428 203.615 299.816C203.047 299.203 202.282 298.897 201.32 298.897C200.337 298.897 199.539 299.214 198.927 299.848C198.337 300.46 198.042 301.269 198.042 302.275V312.734H192.796ZM215.037 312.734V294.766H220.282V312.734H215.037ZM212.643 298.635V294.766H220.282V298.635H212.643ZM217.069 292.996C216.086 292.996 215.353 292.744 214.873 292.242C214.414 291.717 214.184 291.061 214.184 290.274C214.184 289.466 214.414 288.81 214.873 288.307C215.353 287.783 216.086 287.52 217.069 287.52C218.053 287.52 218.774 287.783 219.233 288.307C219.714 288.81 219.955 289.466 219.955 290.274C219.955 291.061 219.714 291.717 219.233 292.242C218.774 292.744 218.053 292.996 217.069 292.996ZM225.495 312.734V294.406C225.495 292.329 226.074 290.788 227.233 289.783C228.413 288.777 230.151 288.274 232.446 288.274H234.217V292.209H232.216C231.626 292.209 231.167 292.373 230.839 292.701C230.533 293.029 230.38 293.488 230.38 294.078V312.734H225.495ZM223.397 298.766V294.93H234.151V298.766H223.397ZM237.692 312.734V294.766H242.938V312.734H237.692ZM235.561 298.635V294.766H242.938V298.635H235.561ZM239.725 292.996C238.741 292.996 238.009 292.744 237.528 292.242C237.069 291.717 236.839 291.061 236.839 290.274C236.839 289.466 237.069 288.81 237.528 288.307C238.009 287.783 238.741 287.52 239.725 287.52C240.73 287.52 241.462 287.783 241.921 288.307C242.38 288.81 242.61 289.466 242.61 290.274C242.61 291.061 242.38 291.717 241.921 292.242C241.462 292.744 240.73 292.996 239.725 292.996ZM256.033 313.357C254.503 313.357 253.148 313.094 251.968 312.57C250.809 312.045 249.836 311.346 249.05 310.471C248.285 309.575 247.694 308.581 247.279 307.488C246.886 306.373 246.689 305.236 246.689 304.078V303.422C246.689 302.22 246.886 301.072 247.279 299.979C247.694 298.865 248.285 297.87 249.05 296.996C249.815 296.121 250.765 295.433 251.902 294.93C253.061 294.406 254.372 294.143 255.837 294.143C257.76 294.143 259.378 294.58 260.689 295.455C262.022 296.307 263.039 297.433 263.738 298.832C264.438 300.209 264.787 301.717 264.787 303.357V305.127H248.886V302.143H261.607L259.902 303.52C259.902 302.449 259.749 301.531 259.443 300.766C259.137 300.001 258.678 299.422 258.066 299.029C257.476 298.613 256.733 298.406 255.837 298.406C254.919 298.406 254.143 298.613 253.509 299.029C252.875 299.444 252.394 300.056 252.066 300.865C251.738 301.652 251.574 302.624 251.574 303.783C251.574 304.854 251.727 305.794 252.033 306.602C252.339 307.389 252.82 308.001 253.476 308.439C254.132 308.876 254.984 309.094 256.033 309.094C256.995 309.094 257.782 308.908 258.394 308.537C259.006 308.165 259.421 307.706 259.64 307.16H264.46C264.197 308.362 263.684 309.433 262.919 310.373C262.154 311.313 261.192 312.045 260.033 312.57C258.875 313.094 257.541 313.357 256.033 313.357ZM275.674 313.324C274.406 313.324 273.247 313.094 272.198 312.635C271.171 312.176 270.275 311.542 269.51 310.734C268.745 309.903 268.154 308.93 267.739 307.816C267.346 306.701 267.149 305.499 267.149 304.209V303.455C267.149 302.165 267.335 300.963 267.706 299.848C268.1 298.734 268.657 297.761 269.378 296.93C270.122 296.078 271.007 295.422 272.034 294.963C273.061 294.482 274.209 294.242 275.477 294.242C276.919 294.242 278.165 294.559 279.215 295.193C280.264 295.805 281.083 296.723 281.674 297.947C282.264 299.149 282.592 300.635 282.657 302.406L281.28 301.127V288.799H286.559V312.734H282.395V305.291H283.116C283.051 306.996 282.69 308.449 282.034 309.652C281.4 310.854 280.537 311.772 279.444 312.406C278.351 313.018 277.094 313.324 275.674 313.324ZM276.985 308.93C277.794 308.93 278.526 308.755 279.182 308.406C279.859 308.034 280.395 307.499 280.788 306.799C281.204 306.1 281.411 305.258 281.411 304.275V303.061C281.411 302.1 281.204 301.291 280.788 300.635C280.373 299.979 279.827 299.477 279.149 299.127C278.471 298.777 277.739 298.602 276.952 298.602C276.078 298.602 275.291 298.832 274.592 299.291C273.914 299.728 273.378 300.34 272.985 301.127C272.592 301.892 272.395 302.788 272.395 303.816C272.395 304.865 272.592 305.772 272.985 306.537C273.378 307.302 273.925 307.892 274.624 308.307C275.324 308.723 276.111 308.93 276.985 308.93ZM305.138 313.258C302.843 313.258 301.062 312.766 299.794 311.783C298.548 310.799 297.903 309.455 297.859 307.75H300.81C300.854 308.428 301.193 309.072 301.827 309.684C302.482 310.275 303.586 310.57 305.138 310.57C306.537 310.57 307.608 310.296 308.351 309.75C309.094 309.182 309.466 308.493 309.466 307.684C309.466 306.963 309.193 306.406 308.646 306.012C308.1 305.597 307.215 305.324 305.991 305.193L304.089 304.996C302.428 304.821 301.073 304.329 300.023 303.52C298.974 302.69 298.45 301.531 298.45 300.045C298.45 298.93 298.734 297.979 299.302 297.193C299.87 296.384 300.657 295.772 301.663 295.356C302.668 294.919 303.827 294.701 305.138 294.701C307.105 294.701 308.701 295.138 309.925 296.012C311.149 296.887 311.783 298.187 311.827 299.914H308.876C308.854 299.214 308.526 298.624 307.892 298.143C307.28 297.641 306.362 297.389 305.138 297.389C303.914 297.389 302.985 297.641 302.351 298.143C301.717 298.646 301.4 299.28 301.4 300.045C301.4 300.701 301.619 301.225 302.056 301.619C302.515 302.012 303.258 302.264 304.286 302.373L306.187 302.57C308.067 302.766 309.575 303.291 310.712 304.143C311.849 304.974 312.417 306.154 312.417 307.684C312.417 308.777 312.1 309.75 311.466 310.602C310.854 311.433 310.002 312.089 308.909 312.57C307.816 313.029 306.559 313.258 305.138 313.258ZM324.421 313.324C322.891 313.324 321.569 313.062 320.454 312.537C319.339 312.012 318.432 311.324 317.733 310.471C317.033 309.597 316.509 308.624 316.159 307.553C315.831 306.482 315.667 305.389 315.667 304.275V303.684C315.667 302.548 315.831 301.444 316.159 300.373C316.509 299.302 317.033 298.34 317.733 297.488C318.432 296.613 319.317 295.925 320.389 295.422C321.481 294.897 322.76 294.635 324.225 294.635C326.126 294.635 327.689 295.05 328.913 295.881C330.159 296.69 331.077 297.739 331.667 299.029C332.279 300.318 332.585 301.695 332.585 303.16V304.57H317.044V302.209H330.29L329.569 303.488C329.569 302.242 329.372 301.171 328.979 300.275C328.585 299.356 327.995 298.646 327.208 298.143C326.421 297.641 325.427 297.389 324.225 297.389C322.979 297.389 321.94 297.673 321.11 298.242C320.301 298.81 319.689 299.586 319.274 300.57C318.88 301.553 318.684 302.69 318.684 303.979C318.684 305.225 318.88 306.351 319.274 307.357C319.689 308.34 320.323 309.127 321.175 309.717C322.028 310.286 323.11 310.57 324.421 310.57C325.798 310.57 326.913 310.264 327.766 309.652C328.64 309.04 329.165 308.329 329.339 307.52H332.29C332.05 308.723 331.569 309.761 330.848 310.635C330.126 311.51 329.219 312.176 328.126 312.635C327.033 313.094 325.798 313.324 324.421 313.324ZM347.645 312.734V307.488H347.12V301.422C347.12 300.22 346.803 299.313 346.169 298.701C345.557 298.089 344.65 297.783 343.448 297.783C342.77 297.783 342.071 297.794 341.35 297.815C340.628 297.837 339.94 297.859 339.284 297.881C338.628 297.903 338.06 297.936 337.579 297.979V295.225C338.06 295.182 338.563 295.149 339.087 295.127C339.634 295.083 340.191 295.061 340.759 295.061C341.328 295.04 341.874 295.029 342.399 295.029C344.191 295.029 345.656 295.247 346.792 295.684C347.929 296.1 348.77 296.788 349.317 297.75C349.863 298.712 350.136 300.012 350.136 301.652V312.734H347.645ZM341.907 313.193C340.595 313.193 339.459 312.974 338.497 312.537C337.557 312.078 336.825 311.422 336.3 310.57C335.798 309.717 335.546 308.69 335.546 307.488C335.546 306.242 335.819 305.204 336.366 304.373C336.934 303.542 337.754 302.919 338.825 302.504C339.896 302.067 341.186 301.848 342.694 301.848H347.448V304.209H342.563C341.295 304.209 340.322 304.515 339.645 305.127C338.967 305.739 338.628 306.526 338.628 307.488C338.628 308.449 338.967 309.225 339.645 309.816C340.322 310.406 341.295 310.701 342.563 310.701C343.306 310.701 344.016 310.57 344.694 310.307C345.371 310.023 345.929 309.564 346.366 308.93C346.825 308.275 347.076 307.378 347.12 306.242L347.973 307.488C347.863 308.734 347.557 309.783 347.054 310.635C346.574 311.466 345.896 312.1 345.022 312.537C344.169 312.974 343.131 313.193 341.907 313.193ZM355.913 312.734V295.225H358.405V302.438H358.274C358.274 299.881 358.831 298.012 359.946 296.832C361.083 295.63 362.777 295.029 365.028 295.029H365.618V297.848H364.504C362.755 297.848 361.411 298.318 360.471 299.258C359.531 300.176 359.061 301.51 359.061 303.258V312.734H355.913ZM376.677 313.324C375.169 313.324 373.858 313.062 372.743 312.537C371.65 312.012 370.743 311.313 370.022 310.439C369.3 309.542 368.754 308.559 368.382 307.488C368.033 306.417 367.858 305.346 367.858 304.275V303.684C367.858 302.57 368.033 301.477 368.382 300.406C368.754 299.335 369.3 298.373 370.022 297.52C370.765 296.646 371.683 295.947 372.776 295.422C373.869 294.897 375.147 294.635 376.612 294.635C378.076 294.635 379.388 294.908 380.546 295.455C381.727 296.001 382.667 296.777 383.366 297.783C384.087 298.766 384.492 299.936 384.579 301.291H381.563C381.41 300.198 380.907 299.291 380.054 298.57C379.202 297.826 378.054 297.455 376.612 297.455C375.366 297.455 374.328 297.739 373.497 298.307C372.666 298.876 372.043 299.652 371.628 300.635C371.213 301.619 371.005 302.734 371.005 303.979C371.005 305.182 371.213 306.286 371.628 307.291C372.043 308.275 372.666 309.061 373.497 309.652C374.35 310.22 375.41 310.504 376.677 310.504C377.661 310.504 378.513 310.329 379.235 309.98C379.956 309.63 380.535 309.16 380.973 308.57C381.41 307.98 381.672 307.313 381.759 306.57H384.776C384.71 307.947 384.306 309.138 383.563 310.143C382.841 311.149 381.88 311.936 380.677 312.504C379.497 313.051 378.164 313.324 376.677 313.324ZM389.053 312.734V288.799H392.2V303.094H391.413C391.413 301.367 391.632 299.881 392.069 298.635C392.528 297.367 393.228 296.395 394.168 295.717C395.107 295.04 396.31 294.701 397.774 294.701H397.905C400.004 294.701 401.588 295.4 402.659 296.799C403.73 298.176 404.266 300.154 404.266 302.734V312.734H401.118V302.078C401.118 300.657 400.714 299.553 399.905 298.766C399.118 297.979 398.091 297.586 396.823 297.586C395.424 297.586 394.299 298.056 393.446 298.996C392.616 299.914 392.2 301.127 392.2 302.635V312.734H389.053Z" fill="white"/>
<path d="M424.131 281.378L424.131 322.09" stroke="white" stroke-width="2.31433"/>
<rect x="77.0712" y="247.657" width="416.574" height="108.153" rx="18.7695" stroke="url(#paint4_linear_843_11287)" stroke-width="1.10326"/>
</g>
<g filter="url(#filter4_i_843_11287)">
<path fill-rule="evenodd" clip-rule="evenodd" d="M266.152 410.998C266.069 410.834 265.988 410.668 265.907 410.502C254.464 386.932 266.684 357.388 293.201 344.514C319.257 331.865 349.422 340.018 361.32 362.668C369.764 351.923 382.878 345.023 397.604 345.023C416.585 345.023 432.888 356.488 439.966 372.87C447.863 368.974 456.882 366.766 466.46 366.766C497.574 366.766 522.798 390.072 522.798 418.821C522.798 447.57 497.574 470.875 466.46 470.875C462.425 470.875 458.489 470.483 454.694 469.738C447.126 484.867 431.485 495.255 413.417 495.255C405.089 495.255 397.276 493.048 390.532 489.187C383.446 505.551 367.153 517 348.185 517C327.696 517 310.327 503.64 304.314 485.156C300.088 486.578 295.563 487.348 290.858 487.348C267.568 487.348 248.688 468.468 248.688 445.178C248.688 431.115 255.571 418.66 266.152 410.998Z" fill="url(#paint5_radial_843_11287)"/>
</g>
</g>
<defs>
<filter id="filter0_f_843_11287" x="-3.147" y="168.578" width="574.733" height="266.312" filterUnits="userSpaceOnUse" color-interpolation-filters="sRGB">
<feFlood flood-opacity="0" result="BackgroundImageFix"/>
<feBlend mode="normal" in="SourceGraphic" in2="BackgroundImageFix" result="shape"/>
<feGaussianBlur stdDeviation="39.2639" result="effect1_foregroundBlur_843_11287"/>
</filter>
<filter id="filter1_i_843_11287" x="4" y="179.261" width="250.458" height="166.171" filterUnits="userSpaceOnUse" color-interpolation-filters="sRGB">
<feFlood flood-opacity="0" result="BackgroundImageFix"/>
<feBlend mode="normal" in="SourceGraphic" in2="BackgroundImageFix" result="shape"/>
<feColorMatrix in="SourceAlpha" type="matrix" values="0 0 0 0 0 0 0 0 0 0 0 0 0 0 0 0 0 0 127 0" result="hardAlpha"/>
<feOffset dx="5.69042" dy="6.82851"/>
<feGaussianBlur stdDeviation="14.2261"/>
<feComposite in2="hardAlpha" operator="arithmetic" k2="-1" k3="1"/>
<feColorMatrix type="matrix" values="0 0 0 0 0.0627451 0 0 0 0 0.788235 0 0 0 0 1 0 0 0 0.65 0"/>
<feBlend mode="normal" in2="shape" result="effect1_innerShadow_843_11287"/>
</filter>
<filter id="filter2_i_843_11287" x="256.652" y="62" width="324.677" height="214.485" filterUnits="userSpaceOnUse" color-interpolation-filters="sRGB">
<feFlood flood-opacity="0" result="BackgroundImageFix"/>
<feBlend mode="normal" in="SourceGraphic" in2="BackgroundImageFix" result="shape"/>
<feColorMatrix in="SourceAlpha" type="matrix" values="0 0 0 0 0 0 0 0 0 0 0 0 0 0 0 0 0 0 127 0" result="hardAlpha"/>
<feOffset dx="5.69042" dy="6.82851"/>
<feGaussianBlur stdDeviation="14.2261"/>
<feComposite in2="hardAlpha" operator="arithmetic" k2="-1" k3="1"/>
<feColorMatrix type="matrix" values="0 0 0 0 0.0627451 0 0 0 0 0.788235 0 0 0 0 1 0 0 0 0.65 0"/>
<feBlend mode="normal" in2="shape" result="effect1_innerShadow_843_11287"/>
</filter>
<filter id="filter3_b_843_11287" x="22.1609" y="192.747" width="526.395" height="217.973" filterUnits="userSpaceOnUse" color-interpolation-filters="sRGB">
<feFlood flood-opacity="0" result="BackgroundImageFix"/>
<feGaussianBlur in="BackgroundImageFix" stdDeviation="27.1793"/>
<feComposite in2="SourceAlpha" operator="in" result="effect1_backgroundBlur_843_11287"/>
<feBlend mode="normal" in="SourceGraphic" in2="effect1_backgroundBlur_843_11287" result="shape"/>
</filter>
<filter id="filter4_i_843_11287" x="248.688" y="338.555" width="279.8" height="185.274" filterUnits="userSpaceOnUse" color-interpolation-filters="sRGB">
<feFlood flood-opacity="0" result="BackgroundImageFix"/>
<feBlend mode="normal" in="SourceGraphic" in2="BackgroundImageFix" result="shape"/>
<feColorMatrix in="SourceAlpha" type="matrix" values="0 0 0 0 0 0 0 0 0 0 0 0 0 0 0 0 0 0 127 0" result="hardAlpha"/>
<feOffset dx="5.69042" dy="6.82851"/>
<feGaussianBlur stdDeviation="14.2261"/>
<feComposite in2="hardAlpha" operator="arithmetic" k2="-1" k3="1"/>
<feColorMatrix type="matrix" values="0 0 0 0 0.0627451 0 0 0 0 0.788235 0 0 0 0 1 0 0 0 0.65 0"/>
<feBlend mode="normal" in2="shape" result="effect1_innerShadow_843_11287"/>
</filter>
<linearGradient id="paint0_linear_843_11287" x1="75.3809" y1="356.362" x2="493.058" y2="356.362" gradientUnits="userSpaceOnUse">
<stop stop-color="#022EB9"/>
<stop offset="0.447917" stop-color="#2CC8F7"/>
<stop offset="1" stop-color="#E2FF66"/>
</linearGradient>
<radialGradient id="paint1_radial_843_11287" cx="0" cy="0" r="1" gradientUnits="userSpaceOnUse" gradientTransform="translate(75.006 304.029) rotate(-48.8512) scale(278.984 321.633)">
<stop offset="0.34375" stop-color="#1E59FF"/>
<stop offset="1" stop-color="#2CC8F7"/>
</radialGradient>
<radialGradient id="paint2_radial_843_11287" cx="0" cy="0" r="1" gradientUnits="userSpaceOnUse" gradientTransform="translate(483.103 224.599) rotate(-131.149) scale(363.575 419.156)">
<stop offset="0.34375" stop-color="#1E59FF"/>
<stop offset="1" stop-color="#2CC8F7"/>
</radialGradient>
<linearGradient id="paint3_linear_843_11287" x1="-264.677" y1="325.146" x2="12.5088" y2="-318.284" gradientUnits="userSpaceOnUse">
<stop stop-color="#003DFF"/>
<stop offset="0.505208" stop-color="#1E59FF"/>
<stop offset="1" stop-color="#1E59FF"/>
</linearGradient>
<linearGradient id="paint4_linear_843_11287" x1="84.9494" y1="356.362" x2="480.029" y2="356.362" gradientUnits="userSpaceOnUse">
<stop stop-color="#003DFF"/>
<stop offset="0.504361" stop-color="#0DB7EB"/>
<stop offset="1" stop-color="#E2FF66"/>
</linearGradient>
<radialGradient id="paint5_radial_843_11287" cx="0" cy="0" r="1" gradientUnits="userSpaceOnUse" gradientTransform="translate(328.205 478.281) rotate(-48.8516) scale(312.43 360.19)">
<stop offset="0.34375" stop-color="#1E59FF"/>
<stop offset="1" stop-color="#2CC8F7"/>
</radialGradient>
<clipPath id="clip0_843_11287">
<rect width="580" height="580" fill="white"/>
</clipPath>
</defs>
</svg>
