<svg xmlns="http://www.w3.org/2000/svg" viewBox="0 0 170 26"><g fill="none"><path fill="#000" d="M58.461 22.226c4.664 0 8.776-3.103 8.776-8.387 0-5.242-4.112-8.345-8.776-8.345-4.663 0-8.775 3.103-8.775 8.345 0 5.284 4.112 8.387 8.775 8.387zm-30.057-.336h3.392L23.995 5.787h-3.264L13.524 21.89h3.01l1.568-3.648h8.606l1.696 3.648zm84.322-16.06h-12.337v16.06h12.591v-2.558h-9.708V15.14h8.267v-2.56h-8.267V8.429h9.454v-2.6zM69.484 20.297c.678.545 2.628 1.929 6.105 1.929 3.518 0 6.359-1.887 6.359-4.823 0-6.122-8.946-4.151-8.946-7.506 0-.923.806-1.72 2.84-1.72 2.46 0 4.07 1.09 4.707 1.594l1.187-2.348c-.763-.713-3.01-1.93-5.893-1.93-4.324 0-6.105 2.39-6.105 4.781 0 5.536 8.945 3.942 8.945 7.255 0 1.384-1.399 2.013-3.01 2.013-2.416 0-4.366-1.048-5.214-1.677l-.975 2.432zM41.164 8.345c2.417 0 3.816 1.3 4.58 2.013l2.034-1.97c-.678-.756-2.586-2.894-6.656-2.894-4.663 0-8.775 3.103-8.775 8.345 0 5.284 4.07 8.387 8.733 8.387 3.603 0 6.02-1.93 6.825-2.6l-1.61-2.265c-1.273 1.049-3.307 2.013-5.173 2.013-3.222 0-5.638-2.39-5.638-5.493 0-3.146 2.416-5.536 5.68-5.536zm17.297 11.03c-3.222 0-5.638-2.391-5.638-5.494 0-3.104 2.416-5.494 5.638-5.494S64.1 10.735 64.1 13.84c0 3.103-2.417 5.535-5.639 5.535zM89.24 8.386V21.89h2.883V8.387h5.681V5.83H83.728v2.558h5.511zM2.883 5.83H0v16.06h11.531v-2.558H2.883V5.83zm19.374 2.81l3.307 7.129h-6.402l3.095-7.13z"/><path fill="#00552D" d="M169.406 18.494c-.339-.21-.678-.252-.975-.336-.424-.126-.593-.67-.72-.713-.34-.126-.636.378-.806.294-.212-.042-.254-.713-.424-.755-.296-.126-.636.377-.848.293-.212-.042-.296-.712-.466-.754-.34-.126-.678.377-.848.335-.212-.084-.254-.713-.424-.797-.339-.126-.678.378-.975.336-.212-.042-.636-.084-1.187-.462l-.509-.377c-.042 0-.212-.042-.17.21.086.67 1.273 1.174 2.587 1.551 1.357.378 2.713.755 3.519 1.133.508.21.72.503.55.754-.126.21-.466.21-.847.042-.424-.21-.424-.503-.678-.545-.297-.084-.721.503-.933.462-.34-.084-.34-.755-.636-.84-.382-.083-.763.462-1.017.42-.255-.042-.34-.755-.552-.839-.381-.083-.805.504-1.017.462-.254-.042-.382-.755-.594-.839-.381-.168-.89.42-1.441.126-1.738-1.174-1.399-1.761-2.713-2.139-.679-.21-1.526.042-2.035.084-1.187.126-1.145-.88-1.145-.88.34.083.806.293 1.696-.043.933-.335 1.484-.419 2.713 0 1.06.336 1.654.042 2.035-.042.17-.041.34-.125.636.084.34.21.678.462.848.378.254-.126.17-.797.593-.965.212-.084.764.462.976.378.254-.084.17-.797.593-.965.212-.084.763.461 1.017.378.255-.084.17-.797.594-.965.212-.084.763.461.975.377.254-.083.17-.796.594-.964.212-.084.763.503 1.017.377.254-.083.212-.251.382-.754a1.1 1.1 0 0 1 .212-.252c.254-.21.678-.671.423-1.216-.211-.461-.678-.461-1.653-.252-.848.168-5.977 1.3-5.977 1.3-.806-1.468-1.357-.503-2.544-.629-.763-.084-1.993-.839-3.9.923-1.06-.294-1.95-.042-2.629.335-1.144-.461-3.391-1.593-7.588-1.593-1.187 0-4.028.251-8.521 1.425-1.145.294-2.205.252-2.46-.46-.254-.714.679-1.469 2.417-2.265 4.324-2.055 7.207-1.552 13.057-4.613 3.138-1.636 3.307-3.565 3.307-4.026 0-.336-.339-.42-.509-.168-1.06 1.468-1.314 1.342-1.653 1.007-.424-.42-.72.251-1.187.587-.34.251-.424-.042-.72-.252-.51-.293-.89.63-1.315.797-.509.21-.593-.042-.763-.21a.304.304 0 0 0-.466.042c-.975.923-1.145.839-1.442.503-.212-.251-.339-.377-.975.252-.381.377-.975.797-1.187.336-.17-.462-.339-.755-1.272.083-.55.504-.89.546-1.06.294-.169-.21-.127-.88-.974-.21-.764.587-1.145.965-1.4.378-.254-.545-.805-.084-1.229.335-.212.21-.593.713-.89.21-.297-.503-.763 0-1.4.67-.338.378-.593.21-.932-.041-.381-.294-.805.713-1.399 1.3-.127.084-.254.168-.593-.084-.424-.294-1.145 1.258-1.357 1.635-.34.63-.678-.167-1.06.378-.89 1.3-1.823 2.726-2.12 5.242-.339 3.02.806 5.493 1.95 6.416 0 0-.127.335-.296.755-.34.839-.466 1.97-.043 2.726.382.754 1.357 2.013 1.696.838.17-.587.34-.545.89-.167.848.587.636-.504.806-.797.127-.21.254-.294.975.126.424.251.509-.084.636-.587.381-1.51-.34-1.888-1.06-2.013-.509-.084-1.06 0-1.06 0 1.145-1.72 1.272-2.642 0-3.523.212-.084.34-.042.509.042.297.126.593.377.763.67.17.294.466 1.007-.127 2.224.254 0 1.187.041 1.61 1.006.552.168 4.155.461 5.724.21.551-.084.848-.587 1.399-1.133.636-.587 1.357-1.216 1.993-.713-1.103.462-1.866 1.3-1.866 2.349 0 .797.34 1.132.933 1.593.509.42.678 1.133.89 1.678.255.67.763.713.89.042.17-.88.424-.713.764-.336.423.462.763.378.763-.293 0-.63.212-.923.89-.21.297.294.636.294.636-.377 0-.797.339-.713.805-.378.17.126.255.21.34.21.339 0 .593-.713.296-1.216-.127-.252-.339-.671-2.162-1.049-.593-.125-.509-.545-.509-.545 4.452.21 8.225-.335 10.684-1.845 3.052.713 7.503.797 8.945.797 1.441 0 2.586-.084 3.476-.503.848-.294.72-.965.254-1.258m-9.157-6.836c.085-.21.255-.377.467-.377.339 0 .508.377.508.46l-.805.169c-.297.084-.254-.042-.17-.252m-2.12-.084c.552 0 .933.42.976.63 0 0-.848.209-1.23.25-.254.043-.381-.041-.424-.25-.042-.169.212-.63.679-.63M134.6 6.458c.382-.168.805-.335 1.23-.377.084 0 .127.042.127.084-.085.293-.128.545-.212.838 0 .084-.085.126-.17.084a5.687 5.687 0 0 0-1.017-.461c-.043-.084-.043-.126.042-.168m-1.865.839c.381-.168.805-.336 1.23-.378.084 0 .126.042.126.084-.085.294-.127.545-.212.839 0 .084-.084.126-.127.084-.339-.168-.636-.336-1.017-.461-.085-.042-.085-.126 0-.168m.805 1.929c.085 0 .127.042.127.084-.084.293-.127.545-.212.838 0 .084-.084.084-.127.084-.339-.167-.636-.293-1.017-.461-.085-.042-.085-.084 0-.126a3.88 3.88 0 0 1 1.23-.42m-.806 1.594c-.085.294-.128.546-.212.84 0 .083-.085.125-.17.083-.339-.168-.636-.294-1.017-.461-.085-.042-.085-.084 0-.126.381-.168.805-.336 1.23-.378.126-.083.211-.042.169.042m-1.696-2.39c.381-.168.805-.335 1.23-.377.084 0 .127.042.127.083-.085.294-.128.546-.212.84 0 .083-.085.083-.17.083-.34-.168-.636-.293-1.017-.461 0-.084 0-.126.042-.168m-1.272 1.426c.382-.168.806-.336 1.23-.42.084 0 .127.042.127.084-.085.294-.127.546-.212.84 0 .083-.085.083-.127.083a5.687 5.687 0 0 0-1.018-.461c-.042 0-.085-.084 0-.126m-.466 1.677c.381-.167.805-.335 1.23-.42.084 0 .126.043.126.085-.084.293-.127.545-.212.838 0 .084-.084.084-.17.084-.338-.167-.635-.293-1.017-.46-.042 0-.042-.085.043-.127m.212 1.845c-.085-.042-.085-.083 0-.125.381-.168.805-.336 1.23-.378.084 0 .126.042.126.084-.084.294-.127.545-.212.839 0 .084-.084.084-.127.084a5.724 5.724 0 0 0-1.017-.504m2.204 2.013c0 .084-.085.084-.17.084-.339-.168-.635-.335-1.017-.503-.085-.042-.085-.084 0-.126.382-.168.806-.335 1.23-.377.084 0 .127.042.127.084-.085.251-.127.545-.17.838m-.127-2.474c-.085-.042-.085-.084 0-.126.382-.167.806-.335 1.23-.419.084 0 .127.042.127.084-.085.293-.128.545-.212.839 0 .083-.085.083-.17.083-.297-.125-.636-.293-.975-.46m1.95 3.396c0 .084-.085.084-.17.084a5.687 5.687 0 0 0-1.017-.462c-.085-.041-.085-.083 0-.125.382-.168.806-.336 1.23-.378.084 0 .127.042.127.084-.043.252-.127.503-.17.797m.382-1.761c0 .083-.085.083-.17.083a11.404 11.404 0 0 0-1.017-.503c-.085-.042-.085-.084 0-.126.381-.167.805-.335 1.23-.377.084 0 .126.042.126.084-.042.252-.085.545-.17.839m1.824.88c-.085.294-.128.545-.212.839 0 .084-.085.084-.128.084-.339-.168-.635-.294-1.017-.461-.085-.042-.085-.084 0-.126.382-.168.806-.336 1.23-.378.084-.084.127-.042.127.042m.084-.964a11.404 11.404 0 0 0-1.017-.503c-.085-.042-.085-.084 0-.126.382-.168.805-.336 1.23-.378.084 0 .127.042.127.084-.085.294-.128.545-.212.839 0 .084-.043.126-.128.084m1.569 2.264c-.085.294-.127.545-.212.839 0 .084-.085.084-.17.084-.296-.168-.635-.294-1.017-.461-.085-.042-.085-.084 0-.126.382-.168.805-.336 1.23-.378.127-.042.211 0 .169.042m.424-1.803c-.085.294-.127.545-.212.839 0 .084-.085.084-.17.084-.296-.168-.636-.294-1.017-.462-.085-.042-.085-.084 0-.125.381-.168.805-.336 1.23-.378.127-.084.169-.042.169.042m.254-1.09c0 .084-.084.084-.127.084-.339-.168-.636-.294-1.017-.462-.085-.042-.085-.084 0-.126.381-.167.805-.335 1.23-.419.084 0 .126.042.126.084-.085.252-.17.545-.212.839m1.23 3.145c0 .084-.085.084-.17.084-.297-.168-.636-.294-1.017-.462-.085-.041-.085-.083 0-.125.381-.168.805-.336 1.23-.378.084 0 .126.042.126.084-.042.21-.084.503-.17.797m.425-1.761c0 .083-.085.083-.128.083-.339-.167-.635-.335-1.017-.503-.085-.042-.085-.084 0-.126.382-.167.806-.335 1.23-.377.084 0 .127.042.127.084-.085.251-.17.545-.212.839m.254-1.804c-.297-.167-.636-.293-1.017-.46-.085-.043-.085-.085 0-.127.381-.167.805-.335 1.229-.42.085 0 .127.043.127.085-.085.251-.127.545-.212.838.043.084-.042.126-.127.084m1.696 2.265c-.085.293-.127.545-.212.839 0 .083-.085.083-.17.083-.297-.167-.636-.293-1.017-.503-.085-.042-.085-.084 0-.126.381-.167.805-.335 1.23-.377.126-.042.169.042.169.084m.381-1.761c-.084.293-.127.545-.212.838 0 .084-.084.084-.17.084-.338-.168-.635-.335-1.017-.461-.084-.042-.084-.084 0-.126.382-.21.806-.335 1.23-.377.127-.084.17-.042.17.042m.042-.84a5.687 5.687 0 0 0-1.018-.46c-.085-.042-.085-.084 0-.126.382-.168.806-.336 1.23-.378.084 0 .127.042.127.084-.085.252-.127.545-.212.839 0 .042-.042.084-.127.042m1.653 2.39c-.085.294-.127.545-.212.839 0 .084-.085.084-.127.084-.34-.168-.636-.336-1.018-.462-.084-.041-.084-.083 0-.125.382-.21.806-.336 1.23-.42.085-.042.127.042.127.084m.382-1.761c-.043.293-.128.545-.212.839 0 .083-.085.083-.128.083-.339-.167-.635-.335-1.017-.46-.085-.043-.085-.085 0-.127.382-.167.806-.335 1.23-.419.084-.042.127.042.127.084m.17-.88c0 .083-.086.083-.128.083a5.687 5.687 0 0 0-1.017-.461c-.085-.042-.085-.084 0-.126.381-.168.805-.335 1.229-.377.085 0 .127.042.127.083-.042.21-.127.504-.212.797m1.484 2.726c-.085.294-.127.545-.212.839 0 .084-.085.084-.17.084a11.404 11.404 0 0 0-1.017-.504c-.085-.042-.085-.083 0-.125.382-.168.806-.336 1.23-.378.127-.042.211 0 .169.084m.424-1.803c-.085.293-.127.545-.212.839 0 .083-.085.083-.17.083-.339-.167-.635-.335-1.017-.46-.085-.043-.085-.085 0-.127.382-.167.805-.335 1.23-.377.127-.042.169 0 .169.042m.382-1.72c-.085.294-.128.546-.212.84 0 .083-.085.083-.17.083-.297-.168-.636-.293-1.017-.461-.085-.042-.085-.084 0-.126.381-.168.805-.336 1.229-.42.127-.041.212 0 .17.084m1.399 2.978c0 .084-.085.084-.128.084-.339-.168-.636-.294-1.017-.462-.085-.041-.085-.083 0-.125.381-.168.805-.336 1.23-.378.084 0 .126.042.126.084-.084.21-.127.503-.211.797m.593-2.642c-.085.294-.127.545-.212.839 0 .084-.085.084-.127.084-.34-.168-.636-.336-1.018-.462-.084-.042-.084-.084 0-.126.382-.167.806-.335 1.23-.377.085-.084.17-.042.127.042m1.908.629c-.085.294-.127.545-.212.839 0 .084-.085.084-.127.084-.297-.168-.636-.294-1.018-.462-.085-.042-.085-.084 0-.126.382-.167.806-.335 1.23-.419.084 0 .17.042.127.084"/><path fill="#E10041" d="M158.384 14.72c-1.23-.42-1.78-.336-2.713 0-.89.335-1.357.125-1.696.041 0 0-.042 1.007 1.145.88.508-.041 1.356-.293 2.035-.083 1.314.377.975 1.007 2.713 2.139.551.293 1.06-.294 1.441-.126.212.084.34.797.594.839.254.042.636-.545 1.017-.462.212.042.34.797.551.84.255.041.636-.504 1.018-.42.297.084.297.755.636.838.254.042.636-.545.932-.46.255.041.297.377.679.544.381.168.72.168.848-.042.17-.251-.043-.545-.552-.754-.805-.378-2.162-.755-3.518-1.133-1.357-.377-2.502-.88-2.586-1.551-.043-.294.084-.252.17-.21-.51-.377-.637-.755-.594-.923-.043 0-.085.042-.127.042-.34.042-.933.336-1.993 0"/></g></svg>