<svg width="540" height="405" viewBox="0 0 540 405" fill="none" xmlns="http://www.w3.org/2000/svg">
<path d="M44.8848 18.288C43.8181 18.288 42.9061 18.1013 42.1488 17.728C41.4021 17.3547 40.7995 16.8693 40.3408 16.272C39.8821 15.6747 39.5461 15.0293 39.3328 14.336C39.1195 13.632 39.0128 12.9547 39.0128 12.304L39.0128 11.952C39.0128 11.248 39.1195 10.544 39.3328 9.84C39.5568 9.136 39.8981 8.496 40.3568 7.92C40.8155 7.344 41.4128 6.88 42.1488 6.528C42.8848 6.176 43.7648 6 44.7888 6C45.8341 6 46.7301 6.18133 47.4768 6.544C48.2235 6.90667 48.8155 7.41333 49.2528 8.064C49.6901 8.71467 49.9568 9.48267 50.0528 10.368L48.4528 10.368C48.3675 9.70667 48.1541 9.16267 47.8128 8.736C47.4715 8.29867 47.0395 7.97333 46.5168 7.76C46.0048 7.54667 45.4288 7.44 44.7888 7.44C44.0955 7.44 43.4875 7.56267 42.9648 7.808C42.4421 8.04267 42.0048 8.37867 41.6528 8.816C41.3115 9.24267 41.0501 9.73867 40.8688 10.304C40.6981 10.8693 40.6128 11.4827 40.6128 12.144C40.6128 12.7733 40.6981 13.3707 40.8688 13.936C41.0501 14.5013 41.3168 15.0027 41.6688 15.44C42.0315 15.8773 42.4795 16.224 43.0128 16.48C43.5461 16.7253 44.1701 16.848 44.8848 16.848C45.8875 16.848 46.7301 16.5973 47.4128 16.096C48.0955 15.5947 48.5115 14.8693 48.6608 13.92L50.2608 13.92C50.1541 14.72 49.8821 15.4507 49.4448 16.112C49.0181 16.7733 48.4208 17.3013 47.6528 17.696C46.8955 18.0907 45.9728 18.288 44.8848 18.288ZM57.7636 18.288C56.7182 18.288 55.8169 18.1013 55.0596 17.728C54.3022 17.3547 53.6782 16.864 53.1876 16.256C52.6969 15.648 52.3289 14.9973 52.0836 14.304C51.8489 13.6107 51.7316 12.944 51.7316 12.304L51.7316 11.952C51.7316 11.2587 51.8542 10.56 52.0996 9.856C52.3449 9.152 52.7182 8.512 53.2196 7.936C53.7209 7.34933 54.3449 6.88 55.0916 6.528C55.8489 6.176 56.7396 6 57.7636 6C58.7876 6 59.6729 6.176 60.4196 6.528C61.1769 6.88 61.8062 7.34933 62.3076 7.936C62.8089 8.512 63.1822 9.152 63.4276 9.856C63.6729 10.56 63.7956 11.2587 63.7956 11.952L63.7956 12.304C63.7956 12.944 63.6729 13.6107 63.4276 14.304C63.1929 14.9973 62.8302 15.648 62.3396 16.256C61.8489 16.864 61.2249 17.3547 60.4676 17.728C59.7102 18.1013 58.8089 18.288 57.7636 18.288ZM57.7636 16.848C58.4462 16.848 59.0596 16.72 59.6036 16.464C60.1582 16.208 60.6276 15.8613 61.0116 15.424C61.3956 14.976 61.6889 14.4747 61.8916 13.92C62.0942 13.3547 62.1956 12.7627 62.1956 12.144C62.1956 11.4933 62.0942 10.8853 61.8916 10.32C61.6889 9.75467 61.3956 9.25867 61.0116 8.832C60.6276 8.39467 60.1582 8.05333 59.6036 7.808C59.0596 7.56267 58.4462 7.44 57.7636 7.44C57.0809 7.44 56.4622 7.56267 55.9076 7.808C55.3636 8.05333 54.8996 8.39467 54.5156 8.832C54.1316 9.25867 53.8382 9.75467 53.6356 10.32C53.4329 10.8853 53.3316 11.4933 53.3316 12.144C53.3316 12.7627 53.4329 13.3547 53.6356 13.92C53.8382 14.4747 54.1316 14.976 54.5156 15.424C54.8996 15.8613 55.3636 16.208 55.9076 16.464C56.4622 16.72 57.0809 16.848 57.7636 16.848ZM66.3753 18L66.3753 6.32L68.9353 6.32L74.8713 16.592L75.3833 16.592L75.0633 16.88L75.0633 6.32L76.5673 6.32L76.5673 18L73.9753 18L68.0393 7.728L67.5273 7.728L67.8473 7.44L67.8473 18L66.3753 18ZM82.6574 18L78.6094 6.32L80.2254 6.32L83.8574 16.976L83.0894 16.592L85.0094 16.592L84.1934 16.976L87.5374 6.32L89.1054 6.32L85.3454 18L82.6574 18ZM91.2816 18L91.2816 6.32L92.8496 6.32L92.8496 18L91.2816 18ZM92.5296 18L92.5296 16.592L98.1936 16.592L98.1936 18L92.5296 18ZM92.5296 12.768L92.5296 11.36L97.6976 11.36L97.6976 12.768L92.5296 12.768ZM92.5296 7.728L92.5296 6.32L98.0336 6.32L98.0336 7.728L92.5296 7.728ZM100.875 18L100.875 6.256L102.443 6.256L102.443 18L100.875 18ZM108.091 18L104.219 12.8L106.059 12.8L109.995 18L108.091 18ZM101.851 13.776L101.851 12.384L104.987 12.384C105.478 12.384 105.899 12.2827 106.251 12.08C106.603 11.8773 106.875 11.6 107.067 11.248C107.259 10.8853 107.355 10.4747 107.355 10.016C107.355 9.55733 107.259 9.152 107.067 8.8C106.875 8.43733 106.603 8.15467 106.251 7.952C105.899 7.73867 105.478 7.632 104.987 7.632L101.851 7.632L101.851 6.256L104.699 6.256C105.553 6.256 106.299 6.384 106.939 6.64C107.579 6.896 108.075 7.29067 108.427 7.824C108.779 8.35733 108.955 9.04533 108.955 9.888L108.955 10.144C108.955 10.9867 108.774 11.6747 108.411 12.208C108.059 12.7413 107.563 13.136 106.923 13.392C106.294 13.648 105.553 13.776 104.699 13.776L101.851 13.776ZM115.745 18.288C114.775 18.288 113.948 18.128 113.265 17.808C112.583 17.488 112.06 17.0453 111.697 16.48C111.335 15.9147 111.153 15.2747 111.153 14.56L112.721 14.56C112.721 14.912 112.812 15.264 112.993 15.616C113.185 15.968 113.5 16.2613 113.937 16.496C114.385 16.7307 114.988 16.848 115.745 16.848C116.449 16.848 117.025 16.7467 117.473 16.544C117.921 16.3307 118.252 16.0587 118.465 15.728C118.679 15.3867 118.785 15.0187 118.785 14.624C118.785 14.144 118.577 13.7493 118.161 13.44C117.745 13.12 117.137 12.9227 116.337 12.848L115.041 12.736C114.007 12.6507 113.18 12.3307 112.561 11.776C111.943 11.2213 111.633 10.4907 111.633 9.584C111.633 8.86933 111.804 8.24533 112.145 7.712C112.497 7.17867 112.983 6.76267 113.601 6.464C114.22 6.15467 114.94 6 115.761 6C116.572 6 117.287 6.14933 117.905 6.448C118.524 6.74667 119.004 7.168 119.345 7.712C119.697 8.24533 119.873 8.88533 119.873 9.632L118.305 9.632C118.305 9.25867 118.215 8.90667 118.033 8.576C117.863 8.24533 117.591 7.97333 117.217 7.76C116.844 7.54667 116.359 7.44 115.761 7.44C115.185 7.44 114.705 7.54133 114.321 7.744C113.948 7.94667 113.665 8.21333 113.473 8.544C113.292 8.864 113.201 9.21067 113.201 9.584C113.201 10.0107 113.367 10.3893 113.697 10.72C114.028 11.0507 114.519 11.2427 115.169 11.296L116.465 11.408C117.265 11.472 117.953 11.6427 118.529 11.92C119.116 12.1867 119.564 12.5493 119.873 13.008C120.193 13.456 120.353 13.9947 120.353 14.624C120.353 15.3387 120.161 15.9733 119.777 16.528C119.393 17.0827 118.855 17.5147 118.161 17.824C117.468 18.1333 116.663 18.288 115.745 18.288ZM123.017 18L123.017 6.32L124.585 6.32L124.585 18L123.017 18ZM133.248 18.288C132.203 18.288 131.301 18.1013 130.544 17.728C129.787 17.3547 129.163 16.864 128.672 16.256C128.181 15.648 127.813 14.9973 127.568 14.304C127.333 13.6107 127.216 12.944 127.216 12.304L127.216 11.952C127.216 11.2587 127.339 10.56 127.584 9.856C127.829 9.152 128.203 8.512 128.704 7.936C129.205 7.34933 129.829 6.88 130.576 6.528C131.333 6.176 132.224 6 133.248 6C134.272 6 135.157 6.176 135.904 6.528C136.661 6.88 137.291 7.34933 137.792 7.936C138.293 8.512 138.667 9.152 138.912 9.856C139.157 10.56 139.28 11.2587 139.28 11.952L139.28 12.304C139.28 12.944 139.157 13.6107 138.912 14.304C138.677 14.9973 138.315 15.648 137.824 16.256C137.333 16.864 136.709 17.3547 135.952 17.728C135.195 18.1013 134.293 18.288 133.248 18.288ZM133.248 16.848C133.931 16.848 134.544 16.72 135.088 16.464C135.643 16.208 136.112 15.8613 136.496 15.424C136.88 14.976 137.173 14.4747 137.376 13.92C137.579 13.3547 137.68 12.7627 137.68 12.144C137.68 11.4933 137.579 10.8853 137.376 10.32C137.173 9.75467 136.88 9.25867 136.496 8.832C136.112 8.39467 135.643 8.05333 135.088 7.808C134.544 7.56267 133.931 7.44 133.248 7.44C132.565 7.44 131.947 7.56267 131.392 7.808C130.848 8.05333 130.384 8.39467 130 8.832C129.616 9.25867 129.323 9.75467 129.12 10.32C128.917 10.8853 128.816 11.4933 128.816 12.144C128.816 12.7627 128.917 13.3547 129.12 13.92C129.323 14.4747 129.616 14.976 130 15.424C130.384 15.8613 130.848 16.208 131.392 16.464C131.947 16.72 132.565 16.848 133.248 16.848ZM141.86 18L141.86 6.32L144.42 6.32L150.356 16.592L150.868 16.592L150.548 16.88L150.548 6.32L152.052 6.32L152.052 18L149.46 18L143.524 7.728L143.012 7.728L143.332 7.44L143.332 18L141.86 18ZM159.078 18L159.078 6.256L160.646 6.256L160.646 18L159.078 18ZM166.294 18L162.422 12.8L164.262 12.8L168.198 18L166.294 18ZM160.054 13.776L160.054 12.384L163.19 12.384C163.681 12.384 164.102 12.2827 164.454 12.08C164.806 11.8773 165.078 11.6 165.27 11.248C165.462 10.8853 165.558 10.4747 165.558 10.016C165.558 9.55733 165.462 9.152 165.27 8.8C165.078 8.43733 164.806 8.15467 164.454 7.952C164.102 7.73867 163.681 7.632 163.19 7.632L160.054 7.632L160.054 6.256L162.902 6.256C163.756 6.256 164.502 6.384 165.142 6.64C165.782 6.896 166.278 7.29066 166.63 7.824C166.982 8.35733 167.158 9.04533 167.158 9.888L167.158 10.144C167.158 10.9867 166.977 11.6747 166.614 12.208C166.262 12.7413 165.766 13.136 165.126 13.392C164.497 13.648 163.756 13.776 162.902 13.776L160.054 13.776ZM169.034 18L173.242 6.32L175.898 6.32L180.234 18L178.618 18L174.698 7.344L175.466 7.728L173.578 7.728L174.394 7.344L170.602 18L169.034 18ZM171.546 14.512L172.074 13.104L177.114 13.104L177.642 14.512L171.546 14.512ZM183.757 18L183.757 7.408L185.325 7.408L185.325 18L183.757 18ZM180.205 7.728L180.205 6.32L188.877 6.32L188.877 7.728L180.205 7.728ZM190.985 18L190.985 6.32L192.553 6.32L192.553 18L190.985 18ZM192.233 18L192.233 16.592L197.897 16.592L197.897 18L192.233 18ZM192.233 12.768L192.233 11.36L197.401 11.36L197.401 12.768L192.233 12.768ZM192.233 7.728L192.233 6.32L197.737 6.32L197.737 7.728L192.233 7.728Z" fill="#777AAF"/>
<path d="M387.655 397.301L387.655 395.925L390.263 395.925C390.818 395.925 391.277 395.818 391.639 395.605C392.002 395.381 392.274 395.082 392.455 394.709C392.647 394.335 392.743 393.919 392.743 393.461C392.743 392.991 392.647 392.57 392.455 392.197C392.274 391.823 392.002 391.53 391.639 391.317C391.277 391.103 390.818 390.997 390.263 390.997L387.655 390.997L387.655 389.621L389.975 389.621C390.935 389.621 391.735 389.775 392.375 390.085C393.026 390.383 393.517 390.81 393.847 391.365C394.178 391.919 394.343 392.575 394.343 393.333L394.343 393.589C394.343 394.335 394.178 394.991 393.847 395.557C393.517 396.111 393.026 396.543 392.375 396.853C391.735 397.151 390.935 397.301 389.975 397.301L387.655 397.301ZM386.407 401.365L386.407 389.621L387.975 389.621L387.975 401.365L386.407 401.365ZM396.642 401.365L396.642 389.621L398.21 389.621L398.21 401.365L396.642 401.365ZM403.858 401.365L399.986 396.165L401.826 396.165L405.762 401.365L403.858 401.365ZM397.618 397.141L397.618 395.749L400.754 395.749C401.244 395.749 401.666 395.647 402.018 395.445C402.37 395.242 402.642 394.965 402.834 394.613C403.026 394.25 403.122 393.839 403.122 393.381C403.122 392.922 403.026 392.517 402.834 392.165C402.642 391.802 402.37 391.519 402.018 391.317C401.666 391.103 401.244 390.997 400.754 390.997L397.618 390.997L397.618 389.621L400.466 389.621C401.319 389.621 402.066 389.749 402.706 390.005C403.346 390.261 403.842 390.655 404.194 391.189C404.546 391.722 404.722 392.41 404.722 393.253L404.722 393.509C404.722 394.351 404.54 395.039 404.178 395.573C403.826 396.106 403.33 396.501 402.69 396.757C402.06 397.013 401.319 397.141 400.466 397.141L397.618 397.141ZM407.845 401.365L407.845 389.685L409.413 389.685L409.413 401.365L407.845 401.365ZM409.093 401.365L409.093 399.957L414.757 399.957L414.757 401.365L409.093 401.365ZM409.093 396.133L409.093 394.725L414.261 394.725L414.261 396.133L409.093 396.133ZM409.093 391.093L409.093 389.685L414.597 389.685L414.597 391.093L409.093 391.093ZM417.439 401.365L417.439 389.685L419.007 389.685L419.007 401.365L417.439 401.365ZM418.687 396.165L418.687 394.757L423.695 394.741L423.695 396.149L418.687 396.165ZM418.687 391.093L418.687 389.685L423.967 389.685L423.967 391.093L418.687 391.093ZM426.392 401.365L426.392 389.685L427.96 389.685L427.96 401.365L426.392 401.365ZM427.64 401.365L427.64 399.957L433.304 399.957L433.304 401.365L427.64 401.365ZM427.64 396.133L427.64 394.725L432.808 394.725L432.808 396.133L427.64 396.133ZM427.64 391.093L427.64 389.685L433.144 389.685L433.144 391.093L427.64 391.093ZM435.985 401.365L435.985 389.621L437.553 389.621L437.553 401.365L435.985 401.365ZM443.201 401.365L439.329 396.165L441.169 396.165L445.105 401.365L443.201 401.365ZM436.961 397.141L436.961 395.749L440.097 395.749C440.588 395.749 441.009 395.647 441.361 395.445C441.713 395.242 441.985 394.965 442.177 394.613C442.369 394.25 442.465 393.839 442.465 393.381C442.465 392.922 442.369 392.517 442.177 392.165C441.985 391.802 441.713 391.519 441.361 391.317C441.009 391.103 440.588 390.997 440.097 390.997L436.961 390.997L436.961 389.621L439.809 389.621C440.663 389.621 441.409 389.749 442.049 390.005C442.689 390.261 443.185 390.655 443.537 391.189C443.889 391.722 444.065 392.41 444.065 393.253L444.065 393.509C444.065 394.351 443.884 395.039 443.521 395.573C443.169 396.106 442.673 396.501 442.033 396.757C441.404 397.013 440.663 397.141 439.809 397.141L436.961 397.141ZM447.189 401.365L447.189 389.685L448.757 389.685L448.757 401.365L447.189 401.365ZM448.437 401.365L448.437 399.957L454.101 399.957L454.101 401.365L448.437 401.365ZM448.437 396.133L448.437 394.725L453.605 394.725L453.605 396.133L448.437 396.133ZM448.437 391.093L448.437 389.685L453.941 389.685L453.941 391.093L448.437 391.093ZM456.782 401.365L456.782 389.685L459.342 389.685L465.278 399.957L465.79 399.957L465.47 400.245L465.47 389.685L466.974 389.685L466.974 401.365L464.382 401.365L458.446 391.093L457.934 391.093L458.254 390.805L458.254 401.365L456.782 401.365ZM475.432 401.653C474.366 401.653 473.454 401.466 472.696 401.093C471.95 400.719 471.347 400.234 470.888 399.637C470.43 399.039 470.094 398.394 469.88 397.701C469.667 396.997 469.56 396.319 469.56 395.669L469.56 395.317C469.56 394.613 469.667 393.909 469.88 393.205C470.104 392.501 470.446 391.861 470.904 391.285C471.363 390.709 471.96 390.245 472.696 389.893C473.432 389.541 474.312 389.365 475.336 389.365C476.382 389.365 477.278 389.546 478.024 389.909C478.771 390.271 479.363 390.778 479.8 391.429C480.238 392.079 480.504 392.847 480.6 393.733L479 393.733C478.915 393.071 478.702 392.527 478.36 392.101C478.019 391.663 477.587 391.338 477.064 391.125C476.552 390.911 475.976 390.805 475.336 390.805C474.643 390.805 474.035 390.927 473.512 391.173C472.99 391.407 472.552 391.743 472.2 392.181C471.859 392.607 471.598 393.103 471.416 393.669C471.246 394.234 471.16 394.847 471.16 395.509C471.16 396.138 471.246 396.735 471.416 397.301C471.598 397.866 471.864 398.367 472.216 398.805C472.579 399.242 473.027 399.589 473.56 399.845C474.094 400.09 474.718 400.213 475.432 400.213C476.435 400.213 477.278 399.962 477.96 399.461C478.643 398.959 479.059 398.234 479.208 397.285L480.808 397.285C480.702 398.085 480.43 398.815 479.992 399.477C479.566 400.138 478.968 400.666 478.2 401.061C477.443 401.455 476.52 401.653 475.432 401.653ZM483.079 401.365L483.079 389.685L484.647 389.685L484.647 401.365L483.079 401.365ZM484.327 401.365L484.327 399.957L489.991 399.957L489.991 401.365L484.327 401.365ZM484.327 396.133L484.327 394.725L489.495 394.725L489.495 396.133L484.327 396.133ZM484.327 391.093L484.327 389.685L489.831 389.685L489.831 391.093L484.327 391.093ZM496.34 401.653C495.369 401.653 494.543 401.493 493.86 401.173C493.177 400.853 492.655 400.41 492.292 399.845C491.929 399.279 491.748 398.639 491.748 397.925L493.316 397.925C493.316 398.277 493.407 398.629 493.588 398.981C493.78 399.333 494.095 399.626 494.532 399.861C494.98 400.095 495.583 400.213 496.34 400.213C497.044 400.213 497.62 400.111 498.068 399.909C498.516 399.695 498.847 399.423 499.06 399.093C499.273 398.751 499.38 398.383 499.38 397.989C499.38 397.509 499.172 397.114 498.756 396.805C498.34 396.485 497.732 396.287 496.932 396.213L495.636 396.101C494.601 396.015 493.775 395.695 493.156 395.141C492.537 394.586 492.228 393.855 492.228 392.949C492.228 392.234 492.399 391.61 492.74 391.077C493.092 390.543 493.577 390.127 494.196 389.829C494.815 389.519 495.535 389.365 496.356 389.365C497.167 389.365 497.881 389.514 498.5 389.813C499.119 390.111 499.599 390.533 499.94 391.077C500.292 391.61 500.468 392.25 500.468 392.997L498.9 392.997C498.9 392.623 498.809 392.271 498.628 391.941C498.457 391.61 498.185 391.338 497.812 391.125C497.439 390.911 496.953 390.805 496.356 390.805C495.78 390.805 495.3 390.906 494.916 391.109C494.543 391.311 494.26 391.578 494.068 391.909C493.887 392.229 493.796 392.575 493.796 392.949C493.796 393.375 493.961 393.754 494.292 394.085C494.623 394.415 495.113 394.607 495.764 394.661L497.06 394.773C497.86 394.837 498.548 395.007 499.124 395.285C499.711 395.551 500.159 395.914 500.468 396.373C500.788 396.821 500.948 397.359 500.948 397.989C500.948 398.703 500.756 399.338 500.372 399.893C499.988 400.447 499.449 400.879 498.756 401.189C498.063 401.498 497.257 401.653 496.34 401.653Z" fill="#777AAF"/>
<path d="M39.8448 70.2621L43.5528 62.5941L43.4808 62.4861H38.6928V61.5021H44.5728V62.8941L41.0448 70.2621H39.8448ZM38.6928 63.8781V61.5021H39.6528V63.8781H38.6928ZM49.4714 70.4781C48.8154 70.4781 48.2554 70.3661 47.7914 70.1421C47.3354 69.9101 46.9634 69.5981 46.6754 69.2061C46.3954 68.8141 46.1914 68.3621 46.0634 67.8501C45.9354 67.3301 45.8714 66.7821 45.8714 66.2061V65.5581C45.8714 64.7501 45.9954 64.0221 46.2434 63.3741C46.4994 62.7261 46.8914 62.2141 47.4194 61.8381C47.9554 61.4541 48.6394 61.2621 49.4714 61.2621C50.3034 61.2621 50.9834 61.4541 51.5114 61.8381C52.0394 62.2141 52.4274 62.7261 52.6754 63.3741C52.9314 64.0221 53.0594 64.7501 53.0594 65.5581V66.2061C53.0594 66.7821 52.9954 67.3301 52.8674 67.8501C52.7394 68.3621 52.5314 68.8141 52.2434 69.2061C51.9634 69.5981 51.5954 69.9101 51.1394 70.1421C50.6834 70.3661 50.1274 70.4781 49.4714 70.4781ZM49.4714 69.4221C50.3034 69.4221 50.9114 69.1421 51.2954 68.5821C51.6874 68.0141 51.8834 67.1181 51.8834 65.8941C51.8834 64.6141 51.6834 63.6981 51.2834 63.1461C50.8914 62.5941 50.2874 62.3181 49.4714 62.3181C48.6474 62.3181 48.0354 62.5941 47.6354 63.1461C47.2434 63.6981 47.0474 64.6061 47.0474 65.8701C47.0474 67.1021 47.2434 68.0021 47.6354 68.5701C48.0274 69.1381 48.6394 69.4221 49.4714 69.4221Z" fill="#777AAF"/>
<path d="M40.5648 293.989V285.805L41.0928 286.213H38.6208V285.229H41.7168V293.989H40.5648ZM47.6199 294.205C46.9639 294.205 46.4039 294.093 45.9399 293.869C45.4839 293.637 45.1119 293.325 44.8239 292.933C44.5439 292.541 44.3399 292.089 44.2119 291.577C44.0839 291.057 44.0199 290.509 44.0199 289.933V289.285C44.0199 288.477 44.1439 287.749 44.3919 287.101C44.6479 286.453 45.0399 285.941 45.5679 285.565C46.1039 285.181 46.7879 284.989 47.6199 284.989C48.4519 284.989 49.1319 285.181 49.6599 285.565C50.1879 285.941 50.5759 286.453 50.8239 287.101C51.0799 287.749 51.2079 288.477 51.2079 289.285V289.933C51.2079 290.509 51.1439 291.057 51.0159 291.577C50.8879 292.089 50.6799 292.541 50.3919 292.933C50.1119 293.325 49.7439 293.637 49.2879 293.869C48.8319 294.093 48.2759 294.205 47.6199 294.205ZM47.6199 293.149C48.4519 293.149 49.0599 292.869 49.4439 292.309C49.8359 291.741 50.0319 290.845 50.0319 289.621C50.0319 288.341 49.8319 287.425 49.4319 286.873C49.0399 286.321 48.4359 286.045 47.6199 286.045C46.7959 286.045 46.1839 286.321 45.7839 286.873C45.3919 287.425 45.1959 288.333 45.1959 289.597C45.1959 290.829 45.3919 291.729 45.7839 292.297C46.1759 292.865 46.7879 293.149 47.6199 293.149Z" fill="#777AAF"/>
<path d="M41.7048 221.96C41.0488 221.96 40.4928 221.832 40.0368 221.576C39.5808 221.32 39.2328 220.98 38.9928 220.556C38.7608 220.132 38.6448 219.672 38.6448 219.176H39.7728C39.7728 219.72 39.9448 220.152 40.2888 220.472C40.6408 220.792 41.1128 220.952 41.7048 220.952C42.0968 220.952 42.4368 220.88 42.7248 220.736C43.0128 220.592 43.2368 220.388 43.3968 220.124C43.5568 219.852 43.6368 219.536 43.6368 219.176C43.6368 218.632 43.4608 218.192 43.1088 217.856C42.7648 217.52 42.3008 217.352 41.7168 217.352C41.4688 217.352 41.2528 217.384 41.0688 217.448C40.8928 217.504 40.7368 217.576 40.6008 217.664L40.0248 216.632L43.3728 214.184L43.2528 213.968H38.9928V212.984H44.3328V214.58L41.5608 216.596L40.7208 216.632C40.8568 216.584 41.0048 216.544 41.1648 216.512C41.3328 216.48 41.5288 216.464 41.7528 216.464C42.3928 216.464 42.9368 216.584 43.3848 216.824C43.8328 217.064 44.1728 217.384 44.4048 217.784C44.6448 218.184 44.7648 218.62 44.7648 219.092V219.26C44.7648 219.724 44.6448 220.164 44.4048 220.58C44.1728 220.988 43.8288 221.32 43.3728 221.576C42.9248 221.832 42.3688 221.96 41.7048 221.96ZM49.9519 221.96C49.2959 221.96 48.7359 221.848 48.2719 221.624C47.8159 221.392 47.4439 221.08 47.1559 220.688C46.8759 220.296 46.6719 219.844 46.5439 219.332C46.4159 218.812 46.3519 218.264 46.3519 217.688V217.04C46.3519 216.232 46.4759 215.504 46.7239 214.856C46.9799 214.208 47.3719 213.696 47.8999 213.32C48.4359 212.936 49.1199 212.744 49.9519 212.744C50.7839 212.744 51.4639 212.936 51.9919 213.32C52.5199 213.696 52.9079 214.208 53.1559 214.856C53.4119 215.504 53.5399 216.232 53.5399 217.04V217.688C53.5399 218.264 53.4759 218.812 53.3479 219.332C53.2199 219.844 53.0119 220.296 52.7239 220.688C52.4439 221.08 52.0759 221.392 51.6199 221.624C51.1639 221.848 50.6079 221.96 49.9519 221.96ZM49.9519 220.904C50.7839 220.904 51.3919 220.624 51.7759 220.064C52.1679 219.496 52.3639 218.6 52.3639 217.376C52.3639 216.096 52.1639 215.18 51.7639 214.628C51.3719 214.076 50.7679 213.8 49.9519 213.8C49.1279 213.8 48.5159 214.076 48.1159 214.628C47.7239 215.18 47.5279 216.088 47.5279 217.352C47.5279 218.584 47.7239 219.484 48.1159 220.052C48.5079 220.62 49.1199 220.904 49.9519 220.904Z" fill="#777AAF"/>
<path d="M41.9088 147.384C41.2368 147.384 40.6688 147.248 40.2048 146.976C39.7408 146.696 39.3888 146.332 39.1488 145.884C38.9088 145.436 38.7888 144.96 38.7888 144.456H39.9168C39.9168 144.824 39.9968 145.152 40.1568 145.44C40.3248 145.728 40.5568 145.956 40.8528 146.124C41.1488 146.292 41.5008 146.376 41.9088 146.376C42.3088 146.376 42.6568 146.296 42.9528 146.136C43.2568 145.968 43.4928 145.74 43.6608 145.452C43.8288 145.156 43.9128 144.824 43.9128 144.456C43.9128 144.088 43.8288 143.756 43.6608 143.46C43.5008 143.164 43.2688 142.928 42.9648 142.752C42.6688 142.576 42.3168 142.488 41.9088 142.488C41.6128 142.488 41.3128 142.54 41.0088 142.644C40.7048 142.74 40.4608 142.88 40.2768 143.064H39.2208L39.6648 138.408H44.2608V139.392H40.3368L40.6248 138.996L40.2888 142.392L39.9768 142.284C40.2088 142.052 40.4888 141.868 40.8168 141.732C41.1528 141.596 41.5328 141.528 41.9568 141.528C42.6288 141.528 43.1928 141.668 43.6488 141.948C44.1048 142.22 44.4488 142.576 44.6808 143.016C44.9208 143.448 45.0408 143.9 45.0408 144.372V144.54C45.0408 145.012 44.9208 145.468 44.6808 145.908C44.4408 146.34 44.0848 146.696 43.6128 146.976C43.1488 147.248 42.5808 147.384 41.9088 147.384ZM50.0574 147.384C49.4014 147.384 48.8414 147.272 48.3774 147.048C47.9214 146.816 47.5494 146.504 47.2614 146.112C46.9814 145.72 46.7774 145.268 46.6494 144.756C46.5214 144.236 46.4574 143.688 46.4574 143.112V142.464C46.4574 141.656 46.5814 140.928 46.8294 140.28C47.0854 139.632 47.4774 139.12 48.0054 138.744C48.5414 138.36 49.2254 138.168 50.0574 138.168C50.8894 138.168 51.5694 138.36 52.0974 138.744C52.6254 139.12 53.0134 139.632 53.2614 140.28C53.5174 140.928 53.6454 141.656 53.6454 142.464V143.112C53.6454 143.688 53.5814 144.236 53.4534 144.756C53.3254 145.268 53.1174 145.72 52.8294 146.112C52.5494 146.504 52.1814 146.816 51.7254 147.048C51.2694 147.272 50.7134 147.384 50.0574 147.384ZM50.0574 146.328C50.8894 146.328 51.4974 146.048 51.8814 145.488C52.2734 144.92 52.4694 144.024 52.4694 142.8C52.4694 141.52 52.2694 140.604 51.8694 140.052C51.4774 139.5 50.8734 139.224 50.0574 139.224C49.2334 139.224 48.6214 139.5 48.2214 140.052C47.8294 140.604 47.6334 141.512 47.6334 142.776C47.6334 144.008 47.8294 144.908 48.2214 145.476C48.6134 146.044 49.2254 146.328 50.0574 146.328Z" fill="#777AAF"/>
<rect x="73.0741" y="365.886" width="8.15669" height="48.9402" rx="4.07835" transform="rotate(-90 73.0741 365.886)" fill="url(#paint0_linear_903_34298)" stroke="url(#paint1_linear_903_34298)" stroke-miterlimit="10"/>
<rect x="148.815" y="365.886" width="74.5755" height="48.9402" rx="11" transform="rotate(-90 148.815 365.886)" fill="url(#paint2_linear_903_34298)" stroke="url(#paint3_linear_903_34298)" stroke-miterlimit="10"/>
<rect x="224.556" y="365.886" width="129.342" height="48.9402" rx="11" transform="rotate(-90 224.556 365.886)" fill="url(#paint4_linear_903_34298)" stroke="url(#paint5_linear_903_34298)" stroke-miterlimit="10"/>
<rect x="300.296" y="365.886" width="173.621" height="48.9402" rx="11" transform="rotate(-90 300.296 365.886)" fill="url(#paint6_linear_903_34298)" stroke="url(#paint7_linear_903_34298)" stroke-miterlimit="10"/>
<rect x="376.037" y="365.886" width="222.561" height="48.9402" rx="11" transform="rotate(-90 376.037 365.886)" fill="url(#paint8_linear_903_34298)" stroke="url(#paint9_linear_903_34298)" stroke-miterlimit="10"/>
<rect x="451.778" y="365.886" width="294.806" height="48.9402" rx="11" transform="rotate(-90 451.778 365.886)" fill="url(#paint10_linear_903_34298)" stroke="url(#paint11_linear_903_34298)" stroke-miterlimit="10"/>
<path d="M480.909 61.7578L472.417 69.5822L483.439 73.0242L480.909 61.7578ZM72.9987 366.137C175.068 373.852 397.408 325.114 479.171 70.6772L477.267 70.0653C395.876 323.345 174.622 371.813 73.1494 364.142L72.9987 366.137Z" fill="url(#paint12_linear_903_34298)"/>
<path opacity="0.02" d="M407.619 217.59C407.619 221.768 404.277 225.111 400.098 225.111C395.92 225.111 392.577 221.768 392.577 217.59C392.577 213.411 395.92 210.069 400.098 210.069C404.277 210.069 407.619 213.411 407.619 217.59Z" fill="#E2FF66"/>
<path opacity="0.04" d="M407.527 217.587C407.527 221.672 404.184 225.015 400.099 225.015C396.013 225.015 392.67 221.672 392.67 217.587C392.67 213.501 396.013 210.158 400.099 210.158C404.184 210.158 407.527 213.501 407.527 217.587Z" fill="#E2FF66"/>
<path opacity="0.06" d="M407.432 217.594C407.432 221.68 404.182 224.929 400.097 224.929C396.011 224.929 392.761 221.68 392.761 217.594C392.761 213.508 396.011 210.259 400.097 210.259C404.182 210.259 407.432 213.508 407.432 217.594Z" fill="#E2FF66"/>
<path opacity="0.08" d="M407.335 217.592C407.335 221.585 404.086 224.835 400.093 224.835C396.1 224.835 392.85 221.585 392.85 217.592C392.85 213.599 396.1 210.35 400.093 210.35C404.086 210.35 407.335 213.599 407.335 217.592Z" fill="#E2FF66"/>
<path opacity="0.1" d="M407.259 217.589C407.259 221.582 404.102 224.739 400.109 224.739C396.116 224.739 392.959 221.582 392.959 217.589C392.959 213.596 396.116 210.439 400.109 210.439C404.102 210.439 407.259 213.596 407.259 217.589Z" fill="#E2FF66"/>
<path opacity="0.12" d="M407.164 217.589C407.164 221.488 404.007 224.645 400.107 224.645C396.208 224.645 393.05 221.488 393.05 217.589C393.05 213.689 396.208 210.532 400.107 210.532C404.007 210.532 407.164 213.689 407.164 217.589Z" fill="#E2FF66"/>
<path opacity="0.14" d="M407.07 217.595C407.07 221.402 403.913 224.559 400.106 224.559C396.299 224.559 393.142 221.402 393.142 217.595C393.142 213.788 396.299 210.631 400.106 210.631C403.913 210.631 407.07 213.788 407.07 217.595Z" fill="#E2FF66"/>
<path opacity="0.16" d="M406.975 217.592C406.975 221.399 403.911 224.463 400.104 224.463C396.297 224.463 393.233 221.399 393.233 217.592C393.233 213.785 396.297 210.721 400.104 210.721C403.911 210.721 406.975 213.785 406.975 217.592Z" fill="#E2FF66"/>
<path opacity="0.18" d="M406.878 217.59C406.878 221.304 403.814 224.368 400.1 224.368C396.385 224.368 393.321 221.304 393.321 217.59C393.321 213.876 396.385 210.812 400.1 210.812C403.814 210.812 406.878 213.876 406.878 217.59Z" fill="#E2FF66"/>
<path opacity="0.2" d="M406.781 217.588C406.781 221.302 403.81 224.274 400.096 224.274C396.381 224.274 393.41 221.302 393.41 217.588C393.41 213.874 396.381 210.903 400.096 210.903C403.81 210.903 406.781 213.874 406.781 217.588Z" fill="#E2FF66"/>
<path opacity="0.22" d="M406.691 217.595C406.691 221.217 403.72 224.188 400.098 224.188C396.477 224.188 393.506 221.217 393.506 217.595C393.506 213.974 396.477 211.003 400.098 211.003C403.72 211.003 406.691 213.974 406.691 217.595Z" fill="#E2FF66"/>
<path opacity="0.24" d="M406.596 217.592C406.596 221.214 403.718 224.092 400.096 224.092C396.475 224.092 393.597 221.214 393.597 217.592C393.597 213.971 396.475 211.093 400.096 211.093C403.718 211.093 406.596 213.971 406.596 217.592Z" fill="#E2FF66"/>
<path opacity="0.25" d="M406.517 217.591C406.517 221.119 403.639 223.998 400.111 223.998C396.582 223.998 393.704 221.119 393.704 217.591C393.704 214.062 396.582 211.184 400.111 211.184C403.639 211.184 406.517 214.062 406.517 217.591Z" fill="#E2FF66"/>
<path opacity="0.27" d="M406.421 217.588C406.421 221.116 403.635 223.902 400.106 223.902C396.578 223.902 393.792 221.116 393.792 217.588C393.792 214.059 396.578 211.274 400.106 211.274C403.635 211.274 406.421 214.059 406.421 217.588Z" fill="#E2FF66"/>
<path opacity="0.29" d="M406.326 217.595C406.326 221.031 403.54 223.816 400.105 223.816C396.669 223.816 393.883 221.031 393.883 217.595C393.883 214.159 396.669 211.374 400.105 211.374C403.54 211.374 406.326 214.159 406.326 217.595Z" fill="#E2FF66"/>
<path opacity="0.31" d="M406.231 217.592C406.231 220.935 403.538 223.72 400.103 223.72C396.667 223.72 393.974 221.028 393.974 217.592C393.974 214.156 396.76 211.464 400.103 211.464C403.446 211.464 406.231 214.156 406.231 217.592Z" fill="#E2FF66"/>
<path opacity="0.33" d="M406.137 217.591C406.137 220.934 403.444 223.627 400.101 223.627C396.758 223.627 394.066 220.934 394.066 217.591C394.066 214.249 396.758 211.556 400.101 211.556C403.444 211.556 406.137 214.249 406.137 217.591Z" fill="#E2FF66"/>
<path opacity="0.35" d="M406.042 217.589C406.042 220.839 403.349 223.532 400.099 223.532C396.849 223.532 394.157 220.839 394.157 217.589C394.157 214.34 396.849 211.647 400.099 211.647C403.349 211.647 406.042 214.34 406.042 217.589Z" fill="#E2FF66"/>
<path opacity="0.37" d="M405.947 217.596C405.947 220.846 403.347 223.445 400.097 223.445C396.848 223.445 394.248 220.846 394.248 217.596C394.248 214.346 396.848 211.746 400.097 211.746C403.347 211.746 405.947 214.346 405.947 217.596Z" fill="#E2FF66"/>
<path opacity="0.39" d="M405.853 217.594C405.853 220.751 403.253 223.351 400.096 223.351C396.939 223.351 394.339 220.751 394.339 217.594C394.339 214.437 396.939 211.837 400.096 211.837C403.253 211.837 405.853 214.437 405.853 217.594Z" fill="#E2FF66"/>
<path opacity="0.41" d="M405.774 217.591C405.774 220.748 403.267 223.255 400.11 223.255C396.953 223.255 394.446 220.748 394.446 217.591C394.446 214.434 396.953 211.927 400.11 211.927C403.267 211.927 405.774 214.434 405.774 217.591Z" fill="#E2FF66"/>
<path opacity="0.43" d="M405.681 217.589C405.681 220.653 403.174 223.16 400.11 223.16C397.046 223.16 394.539 220.653 394.539 217.589C394.539 214.525 397.046 212.018 400.11 212.018C403.174 212.018 405.681 214.525 405.681 217.589Z" fill="#E2FF66"/>
<path opacity="0.45" d="M405.587 217.595C405.587 220.566 403.173 223.074 400.108 223.074C397.044 223.074 394.63 220.659 394.63 217.595C394.63 214.531 397.044 212.117 400.108 212.117C403.173 212.117 405.587 214.531 405.587 217.595Z" fill="#E2FF66"/>
<path opacity="0.47" d="M405.49 217.593C405.49 220.565 403.076 222.979 400.104 222.979C397.133 222.979 394.719 220.565 394.719 217.593C394.719 214.622 397.133 212.208 400.104 212.208C403.076 212.208 405.49 214.622 405.49 217.593Z" fill="#E2FF66"/>
<path opacity="0.49" d="M405.395 217.592C405.395 220.47 403.074 222.884 400.102 222.884C397.131 222.884 394.81 220.563 394.81 217.592C394.81 214.62 397.131 212.299 400.102 212.299C403.074 212.299 405.395 214.62 405.395 217.592Z" fill="#E2FF66"/>
<path opacity="0.51" d="M405.3 217.59C405.3 220.468 402.979 222.79 400.101 222.79C397.222 222.79 394.901 220.468 394.901 217.59C394.901 214.711 397.222 212.39 400.101 212.39C402.979 212.39 405.3 214.711 405.3 217.59Z" fill="#E2FF66"/>
<path opacity="0.53" d="M405.206 217.588C405.206 220.374 402.977 222.695 400.099 222.695C397.22 222.695 394.992 220.466 394.992 217.588C394.992 214.709 397.22 212.481 400.099 212.481C402.977 212.481 405.206 214.709 405.206 217.588Z" fill="#E2FF66"/>
<path opacity="0.55" d="M405.109 217.595C405.109 220.381 402.88 222.609 400.095 222.609C397.309 222.609 395.081 220.381 395.081 217.595C395.081 214.81 397.309 212.581 400.095 212.581C402.88 212.581 405.109 214.81 405.109 217.595Z" fill="#E2FF66"/>
<path opacity="0.57" d="M405.014 217.592C405.014 220.285 402.786 222.513 400.093 222.513C397.4 222.513 395.172 220.285 395.172 217.592C395.172 214.899 397.4 212.671 400.093 212.671C402.786 212.671 405.014 214.899 405.014 217.592Z" fill="#E2FF66"/>
<path opacity="0.59" d="M404.938 217.589C404.938 220.282 402.802 222.418 400.109 222.418C397.416 222.418 395.281 220.282 395.281 217.589C395.281 214.897 397.416 212.761 400.109 212.761C402.802 212.761 404.938 214.897 404.938 217.589Z" fill="#E2FF66"/>
<path opacity="0.61" d="M404.841 217.587C404.841 220.187 402.705 222.323 400.105 222.323C397.505 222.323 395.37 220.187 395.37 217.587C395.37 214.988 397.505 212.852 400.105 212.852C402.705 212.852 404.841 214.988 404.841 217.587Z" fill="#E2FF66"/>
<path opacity="0.63" d="M404.746 217.594C404.746 220.101 402.703 222.236 400.103 222.236C397.503 222.236 395.461 220.193 395.461 217.594C395.461 214.994 397.503 212.951 400.103 212.951C402.703 212.951 404.746 214.994 404.746 217.594Z" fill="#E2FF66"/>
<path opacity="0.65" d="M404.654 217.592C404.654 220.099 402.611 222.142 400.104 222.142C397.597 222.142 395.554 220.099 395.554 217.592C395.554 215.085 397.597 213.042 400.104 213.042C402.611 213.042 404.654 215.085 404.654 217.592Z" fill="#E2FF66"/>
<path opacity="0.67" d="M404.559 217.59C404.559 220.004 402.609 222.047 400.102 222.047C397.595 222.047 395.645 220.097 395.645 217.59C395.645 215.083 397.595 213.133 400.102 213.133C402.609 213.133 404.559 215.083 404.559 217.59Z" fill="#E2FF66"/>
<path opacity="0.69" d="M404.464 217.588C404.464 220.002 402.514 221.952 400.1 221.952C397.686 221.952 395.736 220.002 395.736 217.588C395.736 215.174 397.686 213.224 400.1 213.224C402.514 213.224 404.464 215.174 404.464 217.588Z" fill="#E2FF66"/>
<path opacity="0.71" d="M404.367 217.595C404.367 219.917 402.51 221.867 400.096 221.867C397.682 221.867 395.825 220.01 395.825 217.595C395.825 215.181 397.682 213.324 400.096 213.324C402.51 213.324 404.367 215.181 404.367 217.595Z" fill="#E2FF66"/>
<path opacity="0.73" d="M404.27 217.592C404.27 219.914 402.413 221.771 400.092 221.771C397.771 221.771 395.914 219.914 395.914 217.592C395.914 215.271 397.771 213.414 400.092 213.414C402.413 213.414 404.27 215.271 404.27 217.592Z" fill="#E2FF66"/>
<path opacity="0.75" d="M404.196 217.592C404.196 219.82 402.432 221.677 400.111 221.677C397.789 221.677 396.025 219.913 396.025 217.592C396.025 215.27 397.882 213.506 400.111 213.506C402.339 213.506 404.196 215.27 404.196 217.592Z" fill="#E2FF66"/>
<path opacity="0.76" d="M404.099 217.589C404.099 219.724 402.335 221.582 400.107 221.582C397.878 221.582 396.114 219.817 396.114 217.589C396.114 215.36 397.878 213.596 400.107 213.596C402.335 213.596 404.099 215.36 404.099 217.589Z" fill="#E2FF66"/>
<path opacity="0.78" d="M404.007 217.595C404.007 219.731 402.243 221.495 400.107 221.495C397.971 221.495 396.207 219.731 396.207 217.595C396.207 215.459 397.971 213.695 400.107 213.695C402.243 213.695 404.007 215.459 404.007 217.595Z" fill="#E2FF66"/>
<path opacity="0.8" d="M403.908 217.591C403.908 219.634 402.237 221.398 400.194 221.398C398.151 221.398 396.387 219.727 396.387 217.591C396.387 215.456 398.058 213.877 400.194 213.877C402.33 213.877 403.908 215.549 403.908 217.591Z" fill="#E2FF66"/>
<path opacity="0.82" d="M403.813 217.588C403.813 219.631 402.142 221.21 400.192 221.21C398.242 221.21 396.478 219.538 396.478 217.588C396.478 215.638 398.149 213.967 400.192 213.967C402.235 213.967 403.813 215.638 403.813 217.588Z" fill="#E2FF66"/>
<path opacity="0.84" d="M403.717 217.596C403.717 219.546 402.138 221.124 400.188 221.124C398.239 221.124 396.66 219.546 396.66 217.596C396.66 215.646 398.239 214.067 400.188 214.067C402.138 214.067 403.717 215.646 403.717 217.596Z" fill="#E2FF66"/>
<path opacity="0.86" d="M403.638 217.593C403.638 219.543 402.06 221.028 400.203 221.028C398.345 221.028 396.767 219.45 396.767 217.593C396.767 215.736 398.345 214.157 400.203 214.157C402.06 214.157 403.638 215.736 403.638 217.593Z" fill="#E2FF66"/>
<path opacity="0.88" d="M403.543 217.591C403.543 219.448 402.058 220.934 400.201 220.934C398.344 220.934 396.858 219.448 396.858 217.591C396.858 215.734 398.344 214.248 400.201 214.248C402.058 214.248 403.543 215.734 403.543 217.591Z" fill="#E2FF66"/>
<path opacity="0.9" d="M403.449 217.589C403.449 219.446 401.963 220.839 400.199 220.839C398.435 220.839 396.949 219.353 396.949 217.589C396.949 215.825 398.435 214.339 400.199 214.339C401.963 214.339 403.449 215.825 403.449 217.589Z" fill="#E2FF66"/>
<path opacity="0.92" d="M403.356 217.596C403.356 219.361 401.964 220.753 400.199 220.753C398.435 220.753 397.042 219.361 397.042 217.596C397.042 215.832 398.435 214.439 400.199 214.439C401.964 214.439 403.356 215.832 403.356 217.596Z" fill="#E2FF66"/>
<path opacity="0.94" d="M403.259 217.593C403.259 219.265 401.867 220.658 400.195 220.658C398.524 220.658 397.131 219.265 397.131 217.593C397.131 215.922 398.524 214.529 400.195 214.529C401.867 214.529 403.259 215.922 403.259 217.593Z" fill="#E2FF66"/>
<path opacity="0.96" d="M403.165 217.592C403.165 219.263 401.865 220.563 400.193 220.563C398.522 220.563 397.222 219.17 397.222 217.592C397.222 216.013 398.615 214.62 400.193 214.62C401.772 214.62 403.165 215.92 403.165 217.592Z" fill="#E2FF66"/>
<path opacity="0.98" d="M403.07 217.59C403.07 219.168 401.77 220.468 400.192 220.468C398.613 220.468 397.313 219.168 397.313 217.59C397.313 216.011 398.613 214.711 400.192 214.711C401.77 214.711 403.07 216.011 403.07 217.59Z" fill="#E2FF66"/>
<path d="M402.973 217.588C402.973 219.166 401.673 220.374 400.188 220.374C398.702 220.374 397.402 219.074 397.402 217.588C397.402 216.102 398.702 214.802 400.188 214.802C401.673 214.802 402.973 216.102 402.973 217.588Z" fill="#E2FF66"/>
<g opacity="0.05">
<path d="M400.107 236.905C389.429 236.905 380.701 228.177 380.701 217.499C380.701 206.821 389.429 198.093 400.107 198.093C410.786 198.093 419.514 206.821 419.514 217.499C419.514 228.177 410.786 236.905 400.107 236.905ZM400.107 199.392C390.079 199.392 381.908 207.564 381.908 217.592C381.908 227.62 390.079 235.791 400.107 235.791C410.136 235.791 418.307 227.62 418.307 217.592C418.307 207.564 410.136 199.392 400.107 199.392Z" fill="#E2FF66"/>
</g>
<g opacity="0.1">
<path d="M400.099 233.468C391.278 233.468 384.128 226.318 384.128 217.497C384.128 208.676 391.278 201.526 400.099 201.526C408.92 201.526 416.07 208.676 416.07 217.497C416.07 226.318 408.92 233.468 400.099 233.468ZM400.099 202.734C391.928 202.734 385.335 209.326 385.335 217.497C385.335 225.669 391.928 232.261 400.099 232.261C408.27 232.261 414.863 225.669 414.863 217.497C414.863 209.326 408.27 202.734 400.099 202.734Z" fill="#E2FF66"/>
</g>
<g opacity="0.15">
<path d="M400.109 230.125C393.145 230.125 387.574 224.461 387.574 217.59C387.574 210.718 393.238 205.054 400.109 205.054C406.981 205.054 412.645 210.718 412.645 217.59C412.645 224.461 406.981 230.125 400.109 230.125ZM400.109 206.169C393.888 206.169 388.781 211.276 388.781 217.497C388.781 223.718 393.888 228.825 400.109 228.825C406.331 228.825 411.438 223.718 411.438 217.497C411.438 211.276 406.331 206.169 400.109 206.169Z" fill="#E2FF66"/>
</g>
<g opacity="0.2">
<path d="M400.102 226.688C395.087 226.688 390.909 222.602 390.909 217.495C390.909 212.388 394.995 208.303 400.102 208.303C405.209 208.303 409.294 212.388 409.294 217.495C409.294 222.602 405.209 226.688 400.102 226.688ZM400.102 209.603C395.737 209.603 392.116 213.131 392.116 217.588C392.116 222.045 395.645 225.574 400.102 225.574C404.559 225.574 408.087 222.045 408.087 217.588C408.087 213.131 404.559 209.603 400.102 209.603Z" fill="#E2FF66"/>
</g>
<g opacity="0.05">
<path d="M400.107 236.905C389.429 236.905 380.701 228.177 380.701 217.499C380.701 206.821 389.429 198.093 400.107 198.093C410.786 198.093 419.514 206.821 419.514 217.499C419.514 228.177 410.786 236.905 400.107 236.905ZM400.107 199.392C390.079 199.392 381.908 207.564 381.908 217.592C381.908 227.62 390.079 235.791 400.107 235.791C410.136 235.791 418.307 227.62 418.307 217.592C418.307 207.564 410.136 199.392 400.107 199.392Z" fill="#E2FF66"/>
</g>
<g opacity="0.1">
<path d="M400.099 233.468C391.278 233.468 384.128 226.318 384.128 217.497C384.128 208.676 391.278 201.526 400.099 201.526C408.92 201.526 416.07 208.676 416.07 217.497C416.07 226.318 408.92 233.468 400.099 233.468ZM400.099 202.734C391.928 202.734 385.335 209.326 385.335 217.497C385.335 225.669 391.928 232.261 400.099 232.261C408.27 232.261 414.863 225.669 414.863 217.497C414.863 209.326 408.27 202.734 400.099 202.734Z" fill="#E2FF66"/>
</g>
<g opacity="0.15">
<path d="M400.109 230.125C393.145 230.125 387.574 224.461 387.574 217.59C387.574 210.718 393.238 205.054 400.109 205.054C406.981 205.054 412.645 210.718 412.645 217.59C412.645 224.461 406.981 230.125 400.109 230.125ZM400.109 206.169C393.888 206.169 388.781 211.276 388.781 217.497C388.781 223.718 393.888 228.825 400.109 228.825C406.331 228.825 411.438 223.718 411.438 217.497C411.438 211.276 406.331 206.169 400.109 206.169Z" fill="#E2FF66"/>
</g>
<g opacity="0.2">
<path d="M400.102 226.688C395.087 226.688 390.909 222.602 390.909 217.495C390.909 212.388 394.995 208.303 400.102 208.303C405.209 208.303 409.294 212.388 409.294 217.495C409.294 222.602 405.209 226.688 400.102 226.688ZM400.102 209.603C395.737 209.603 392.116 213.131 392.116 217.588C392.116 222.045 395.645 225.574 400.102 225.574C404.559 225.574 408.087 222.045 408.087 217.588C408.087 213.131 404.559 209.603 400.102 209.603Z" fill="#E2FF66"/>
</g>
<g style="mix-blend-mode:color-dodge">
<g opacity="0.05">
<path d="M400.107 236.905C389.429 236.905 380.701 228.177 380.701 217.499C380.701 206.821 389.429 198.093 400.107 198.093C410.786 198.093 419.514 206.821 419.514 217.499C419.514 228.177 410.786 236.905 400.107 236.905ZM400.107 199.392C390.079 199.392 381.908 207.564 381.908 217.592C381.908 227.62 390.079 235.791 400.107 235.791C410.136 235.791 418.307 227.62 418.307 217.592C418.307 207.564 410.136 199.392 400.107 199.392Z" fill="#E2FF66"/>
</g>
<g opacity="0.1">
<path d="M400.099 233.468C391.278 233.468 384.128 226.318 384.128 217.497C384.128 208.676 391.278 201.526 400.099 201.526C408.92 201.526 416.07 208.676 416.07 217.497C416.07 226.318 408.92 233.468 400.099 233.468ZM400.099 202.734C391.928 202.734 385.335 209.326 385.335 217.497C385.335 225.669 391.928 232.261 400.099 232.261C408.27 232.261 414.863 225.669 414.863 217.497C414.863 209.326 408.27 202.734 400.099 202.734Z" fill="#E2FF66"/>
</g>
<g opacity="0.15">
<path d="M400.109 230.125C393.145 230.125 387.574 224.461 387.574 217.59C387.574 210.718 393.238 205.054 400.109 205.054C406.981 205.054 412.645 210.718 412.645 217.59C412.645 224.461 406.981 230.125 400.109 230.125ZM400.109 206.169C393.888 206.169 388.781 211.276 388.781 217.497C388.781 223.718 393.888 228.825 400.109 228.825C406.331 228.825 411.438 223.718 411.438 217.497C411.438 211.276 406.331 206.169 400.109 206.169Z" fill="#E2FF66"/>
</g>
<g opacity="0.2">
<path d="M400.102 226.688C395.087 226.688 390.909 222.602 390.909 217.495C390.909 212.388 394.995 208.303 400.102 208.303C405.209 208.303 409.294 212.388 409.294 217.495C409.294 222.602 405.209 226.688 400.102 226.688ZM400.102 209.603C395.737 209.603 392.116 213.131 392.116 217.588C392.116 222.045 395.645 225.574 400.102 225.574C404.559 225.574 408.087 222.045 408.087 217.588C408.087 213.131 404.559 209.603 400.102 209.603Z" fill="#E2FF66"/>
</g>
</g>
<g style="mix-blend-mode:color-dodge">
<g opacity="0.05">
<path d="M400.107 236.905C389.429 236.905 380.701 228.177 380.701 217.499C380.701 206.821 389.429 198.093 400.107 198.093C410.786 198.093 419.514 206.821 419.514 217.499C419.514 228.177 410.786 236.905 400.107 236.905ZM400.107 199.392C390.079 199.392 381.908 207.564 381.908 217.592C381.908 227.62 390.079 235.791 400.107 235.791C410.136 235.791 418.307 227.62 418.307 217.592C418.307 207.564 410.136 199.392 400.107 199.392Z" fill="#E2FF66"/>
</g>
<g opacity="0.1">
<path d="M400.099 233.468C391.278 233.468 384.128 226.318 384.128 217.497C384.128 208.676 391.278 201.526 400.099 201.526C408.92 201.526 416.07 208.676 416.07 217.497C416.07 226.318 408.92 233.468 400.099 233.468ZM400.099 202.734C391.928 202.734 385.335 209.326 385.335 217.497C385.335 225.669 391.928 232.261 400.099 232.261C408.27 232.261 414.863 225.669 414.863 217.497C414.863 209.326 408.27 202.734 400.099 202.734Z" fill="#E2FF66"/>
</g>
<g opacity="0.15">
<path d="M400.372 230.416C393.408 230.416 387.836 224.751 387.836 217.88C387.836 211.009 393.501 205.345 400.372 205.345C407.243 205.345 412.907 211.009 412.907 217.88C412.907 224.751 407.243 230.416 400.372 230.416ZM400.372 206.459C394.151 206.459 389.044 211.566 389.044 217.787C389.044 224.009 394.151 229.116 400.372 229.116C406.593 229.116 411.7 224.009 411.7 217.787C411.7 211.566 406.593 206.459 400.372 206.459Z" fill="#E2FF66"/>
</g>
<g opacity="0.2">
<path d="M400.251 226.689C395.156 226.689 390.909 222.752 390.909 217.831C390.909 212.91 395.061 208.973 400.251 208.973C405.442 208.973 409.594 212.91 409.594 217.831C409.594 222.752 405.442 226.689 400.251 226.689ZM400.251 210.226C395.816 210.226 392.136 213.626 392.136 217.921C392.136 222.216 395.722 225.616 400.251 225.616C404.781 225.616 408.367 222.216 408.367 217.921C408.367 213.626 404.781 210.226 400.251 210.226Z" fill="#E2FF66"/>
</g>
</g>
<path d="M73.0739 365.887H500.718" stroke="#777AAF" stroke-linecap="round" stroke-linejoin="round"/>
<path d="M73.0739 291.311H500.718" stroke="#777AAF" stroke-linecap="round" stroke-linejoin="round"/>
<path d="M73.0739 217.901H500.718" stroke="#777AAF" stroke-linecap="round" stroke-linejoin="round"/>
<path d="M73.0739 143.325H500.718" stroke="#777AAF" stroke-linecap="round" stroke-linejoin="round"/>
<path d="M73.0739 69.915H500.718" stroke="#777AAF" stroke-linecap="round" stroke-linejoin="round"/>
<defs>
<linearGradient id="paint0_linear_903_34298" x1="85.3915" y1="429.974" x2="72.2262" y2="429.852" gradientUnits="userSpaceOnUse">
<stop stop-color="#C8F2FF"/>
<stop offset="1" stop-color="#2CC8F7" stop-opacity="0"/>
</linearGradient>
<linearGradient id="paint1_linear_903_34298" x1="73.5272" y1="353.068" x2="81.8575" y2="353.153" gradientUnits="userSpaceOnUse">
<stop stop-color="white"/>
<stop offset="0.26" stop-color="#A3EAFF"/>
<stop offset="1" stop-color="#2CC8F7"/>
</linearGradient>
<linearGradient id="paint2_linear_903_34298" x1="261.431" y1="429.974" x2="141.913" y2="419.832" gradientUnits="userSpaceOnUse">
<stop stop-color="#C8F2FF"/>
<stop offset="1" stop-color="#2CC8F7" stop-opacity="0"/>
</linearGradient>
<linearGradient id="paint3_linear_903_34298" x1="152.958" y1="353.068" x2="228.477" y2="360.085" gradientUnits="userSpaceOnUse">
<stop stop-color="white"/>
<stop offset="0.26" stop-color="#A3EAFF"/>
<stop offset="1" stop-color="#2CC8F7"/>
</linearGradient>
<linearGradient id="paint4_linear_903_34298" x1="419.875" y1="429.974" x2="215.519" y2="399.897" gradientUnits="userSpaceOnUse">
<stop stop-color="#C8F2FF"/>
<stop offset="1" stop-color="#2CC8F7" stop-opacity="0"/>
</linearGradient>
<linearGradient id="paint5_linear_903_34298" x1="231.741" y1="353.068" x2="360.506" y2="373.819" gradientUnits="userSpaceOnUse">
<stop stop-color="white"/>
<stop offset="0.26" stop-color="#A3EAFF"/>
<stop offset="1" stop-color="#2CC8F7"/>
</linearGradient>
<linearGradient id="paint6_linear_903_34298" x1="562.482" y1="429.974" x2="292.753" y2="376.684" gradientUnits="userSpaceOnUse">
<stop stop-color="#C8F2FF"/>
<stop offset="1" stop-color="#2CC8F7" stop-opacity="0"/>
</linearGradient>
<linearGradient id="paint7_linear_903_34298" x1="309.942" y1="353.068" x2="479.349" y2="389.715" gradientUnits="userSpaceOnUse">
<stop stop-color="white"/>
<stop offset="0.26" stop-color="#A3EAFF"/>
<stop offset="1" stop-color="#2CC8F7"/>
</linearGradient>
<linearGradient id="paint8_linear_903_34298" x1="712.127" y1="429.974" x2="374.525" y2="344.473" gradientUnits="userSpaceOnUse">
<stop stop-color="#C8F2FF"/>
<stop offset="1" stop-color="#2CC8F7" stop-opacity="0"/>
</linearGradient>
<linearGradient id="paint9_linear_903_34298" x1="388.402" y1="353.068" x2="599.492" y2="411.604" gradientUnits="userSpaceOnUse">
<stop stop-color="white"/>
<stop offset="0.26" stop-color="#A3EAFF"/>
<stop offset="1" stop-color="#2CC8F7"/>
</linearGradient>
<linearGradient id="paint10_linear_903_34298" x1="896.965" y1="429.974" x2="469.229" y2="286.482" gradientUnits="userSpaceOnUse">
<stop stop-color="#C8F2FF"/>
<stop offset="1" stop-color="#2CC8F7" stop-opacity="0"/>
</linearGradient>
<linearGradient id="paint11_linear_903_34298" x1="468.156" y1="353.068" x2="733.472" y2="450.523" gradientUnits="userSpaceOnUse">
<stop stop-color="white"/>
<stop offset="0.26" stop-color="#A3EAFF"/>
<stop offset="1" stop-color="#2CC8F7"/>
</linearGradient>
<linearGradient id="paint12_linear_903_34298" x1="89.97" y1="393.852" x2="562.269" y2="231.179" gradientUnits="userSpaceOnUse">
<stop stop-color="#E2FF66"/>
<stop offset="0.525546" stop-color="#10CCD8"/>
<stop offset="1" stop-color="#003DFF"/>
</linearGradient>
</defs>
</svg>
