<svg width="84" height="46" fill="none" xmlns="http://www.w3.org/2000/svg"><path d="M64.54 14.674a5.171 5.171 0 0 1-3.21 1.095c-2.804 0-5.079-2.221-5.079-4.943 0-2.721 2.306-4.942 5.11-4.942 1.216 0 2.338.407 3.21 1.095l1.091-1.095a6.605 6.605 0 0 0-4.269-1.533c-3.646 0-6.606 2.91-6.606 6.475 0 3.566 2.96 6.475 6.606 6.475a6.78 6.78 0 0 0 4.27-1.532l-1.123-1.095Z" fill="#000"/><path d="M45.033 26.185c.53 0 .966-.438.966-.97a.973.973 0 0 0-.966-.97.973.973 0 0 0-.966.97c0 .532.436.97.966.97ZM45.812 28.03h-1.527v12.92h1.527V28.03Z" fill="#FE414D"/><path d="M13.185 10.795c0-3.535-2.805-6.444-6.232-6.444a6.058 6.058 0 0 0-4.706 2.221v-2.22H.72V21.93h1.527v-6.913c1.184 1.439 2.867 2.252 4.706 2.252 3.427 0 6.232-2.909 6.232-6.475Zm-6.232 4.942c-2.556 0-4.612-2.095-4.706-4.754v-.188c0-2.721 2.088-4.91 4.706-4.91 2.617 0 4.705 2.189 4.705 4.91s-2.119 4.942-4.705 4.942Z" fill="#000"/><path d="M18.826 40.95c1.838 0 3.521-.814 4.705-2.253v2.252h1.527V28.031h-1.527v2.22c-1.184-1.407-2.867-2.22-4.705-2.22-3.428 0-6.233 2.877-6.233 6.443.031 3.566 2.805 6.475 6.233 6.475Zm-4.706-6.507c0-2.721 2.12-4.911 4.706-4.911 2.586 0 4.705 2.19 4.705 4.911v.188c-.093 2.658-2.181 4.754-4.705 4.754-2.587.032-4.706-2.19-4.706-4.942ZM41.48 34.443c0-3.535-2.804-6.444-6.232-6.444a6.058 6.058 0 0 0-4.705 2.221V28h-1.527v17.61h1.527v-6.913c1.184 1.439 2.867 2.252 4.705 2.252 3.46 0 6.233-2.909 6.233-6.506Zm-6.2 4.974c-2.556 0-4.613-2.096-4.706-4.755v-.188c0-2.721 2.119-4.91 4.705-4.91 2.587 0 4.706 2.189 4.706 4.91 0 2.722-2.12 4.943-4.706 4.943Z" fill="#FE414D"/><path d="M24.528 4.351v7.633c0 2.095-1.651 3.785-3.77 3.785a3.764 3.764 0 0 1-3.74-3.785V4.35h-1.495v7.633c0 2.909 2.337 5.286 5.235 5.286a5.296 5.296 0 0 0 5.297-5.286V4.35h-1.527ZM35.28 4.351c-1.84 0-3.522.814-4.706 2.253V.566h-1.527v16.735h1.527v-2.22c1.184 1.407 2.867 2.22 4.705 2.22 3.428 0 6.233-2.877 6.233-6.443-.031-3.598-2.805-6.507-6.233-6.507Zm4.705 6.475c0 2.722-2.12 4.911-4.706 4.911-2.586 0-4.705-2.19-4.705-4.91v-.188c.093-2.66 2.181-4.755 4.705-4.755 2.587 0 4.706 2.221 4.706 4.942ZM50.985 2.506c.53 0 .966-.438.966-.97a.973.973 0 0 0-.966-.97.973.973 0 0 0-.966.97c0 .532.436.97.966.97ZM51.764 4.351h-1.527v12.92h1.527V4.35ZM69.963 2.506c.53 0 .966-.438.966-.97a.973.973 0 0 0-.966-.97.973.973 0 0 0-.966.97c-.031.532.405.97.966.97ZM70.71 4.351h-1.526v12.92h1.526V4.35Z" fill="#000"/><path d="M69.838 28.03a5.173 5.173 0 0 0-3.77 1.627V28.03h-1.465v12.92h1.465v-7.664c.062-2.096 1.745-3.785 3.77-3.785a3.77 3.77 0 0 1 3.77 3.785v7.663h1.497v-7.663c-.031-2.91-2.4-5.256-5.267-5.256ZM82.895 39.48l-.156.03c-.155.032-.374.094-.748.094-.623 0-.872-.375-.872-1.282V29.5h1.776v-1.47H81.12v-4.348H79.56v4.348h-1.808v1.47h1.808v8.852c0 .97.187 1.595.53 2.002.342.407.872.594 1.527.594.498 0 .934-.062 1.215-.187l.093-.032-.03-1.25ZM59.243 37.227a4.637 4.637 0 0 1-3.958 2.22c-2.493 0-4.58-2.001-4.768-4.597h10.221c.406 0 .748-.313.748-.689v-.125c-.28-3.41-2.929-6.006-6.2-6.006-3.46 0-6.264 2.91-6.264 6.475 0 3.535 2.804 6.444 6.263 6.444 2.12 0 4.051-1.094 5.204-2.909l-1.246-.813Zm-3.958-7.695c2.213 0 4.114 1.627 4.581 3.847h-9.224c.498-2.283 2.4-3.847 4.643-3.847ZM9.134 34.725s-.405-.313-.81-.5c-.437-.189-1.029-.376-2.306-.689a2.326 2.326 0 0 1-.499-.125c-.841-.22-1.496-.5-1.994-.845-.468-.406-.624-.75-.624-1.188.032-.47.312-.939.81-1.314.562-.438 1.403-.626 2.338-.595 1.06.032 1.87.595 2.742 1.22l.094.063 1.09-1.032c-.124-.125-.156-.157-.53-.407-.872-.594-1.932-1.22-3.365-1.282-1.247-.063-2.337.187-3.21.75-.935.626-1.527 1.533-1.527 2.503 0 .72.125 1.407.873 2.096.872.844 2.212 1.282 3.428 1.501 1.06.219 2.025.594 2.524 1.001.592.532.779.938.779 1.501-.031.532-.374 1.033-.966 1.408-.592.438-1.465.688-2.337.657-1.184-.063-2.4-.563-3.615-1.533l-.094-.062-1.09 1 .093.094c1.434 1.22 2.96 1.908 4.612 2.002 1.216.063 2.275-.25 3.272-.907.997-.688 1.558-1.595 1.62-2.596.094-1.032-.436-2.096-1.308-2.721Z" fill="#FE414D"/><path d="M81.96 11.045s-.405-.312-.81-.5c-.436-.188-1.029-.375-2.306-.688a2.33 2.33 0 0 1-.499-.125c-.841-.22-1.496-.5-1.994-.845-.468-.407-.655-.75-.623-1.189.03-.469.311-.938.81-1.313.56-.438 1.402-.626 2.337-.595 1.06.032 1.87.595 2.742 1.22l.094.063L82.8 6.04c-.124-.126-.155-.157-.53-.407-.872-.594-1.931-1.22-3.365-1.283-1.246-.062-2.337.188-3.21.751-.934.626-1.526 1.533-1.526 2.503 0 .719.124 1.407.872 2.095.873.845 2.213 1.283 3.428 1.502 1.06.219 2.025.594 2.524 1 .592.533.78.94.78 1.502-.032.532-.375 1.032-.967 1.408-.592.438-1.465.688-2.337.657-1.184-.063-2.4-.563-3.615-1.533l-.093-.063-1.091 1.001.093.094c1.434 1.22 2.96 1.908 4.612 2.002 1.216.063 2.275-.25 3.272-.907.998-.688 1.559-1.595 1.62-2.596.094-1.032-.404-2.096-1.308-2.722ZM45.812.566h-1.527V17.27h1.527V.566Z" fill="#000"/></svg>