<svg xmlns="http://www.w3.org/2000/svg" width="300" height="31" fill="none"><g clip-path="url(#a)"><path fill="#000" d="M130 5c2.4.005 4.719.867 6.54 2.43l.91.8V2.89l-.26-.16a13.09 13.09 0 0 0-6.9-1.85 14.168 14.168 0 0 0-14.31 14.02 14.158 14.158 0 0 0 8.61 13.176c1.712.73 3.55 1.115 5.41 1.134a14.71 14.71 0 0 0 7.14-1.91l.27-.16v-5.37l-.91.81a9.742 9.742 0 0 1-14.867-2.051 9.738 9.738 0 0 1-1.453-5.439A10.001 10.001 0 0 1 130 5ZM153.27.18l-13.33 28.47h4.8l8.54-18.93 8.65 18.93h4.68L153.27.18Zm116.64 0-13.33 28.47h4.8l8.53-18.93 8.65 18.93h4.68L269.91.18ZM180.77 17.1a7.62 7.62 0 0 0 5.89-7.67A7.734 7.734 0 0 0 183 2.72c-2.27-1.29-5-1.29-7.17-1.29h-4.49v27.22h4.35V17.6h.52l7.69 11.06h5.3l-8.43-11.56Zm1.75-7.53c0 3-1.91 4.24-6.39 4.24h-.5V5.43h.37c4.49 0 6.51 1.28 6.51 4.14h.01Zm30.79-8.13v18.33L193.69 0v28.65H198V10.34l19.61 19.57V1.44h-4.35.05Zm12.49 7.98h4.35v19.24h-4.35V9.42Zm28.91-7.98-7.4 18.06-7.43-18.06h-4.75l12.19 28.87 12.14-28.87h-4.75Zm37.35 23.15V1.44h-4.35v27.21H300v-4.06h-7.94Z"/><path fill="#CD1141" d="M153.24 25.43a3.29 3.29 0 1 0 0-6.58 3.29 3.29 0 0 0 0 6.58Z"/><path fill="#59AC40" d="M269.89 25.43a3.29 3.29 0 1 0 0-6.58 3.29 3.29 0 0 0 0 6.58Z"/><path fill="#000" d="M16.17 8.59a7.45 7.45 0 0 0-4.69-1.8c-1.3 0-3 .76-3 2.27s1.91 2.2 3.14 2.6l1.8.54c3.79 1.12 6.71 3 6.71 7.43 0 2.71-.65 5.49-2.81 7.33a12 12 0 0 1-7.72 2.56A16.79 16.79 0 0 1 0 26.41l3-5.7a9.7 9.7 0 0 0 6.28 2.81c1.66 0 3.43-.83 3.43-2.74 0-1.91-2.71-2.67-4.27-3.1C4 16.42 1.08 15.26 1.08 10 1.08 4.47 5 .86 10.47.86A18.62 18.62 0 0 1 19 3.1l-2.83 5.49Zm24.57 3.5V1.59h7.07V28.8h-7.07V17.65H30.53V28.8h-7.07V1.59h7.07v10.5h10.21Zm25.37-4.55c4.22 0 7.69 3.43 7.69 7.18a7.701 7.701 0 1 1-15.37 0c0-3.72 3.46-7.18 7.68-7.18Zm0-6.86c-7.83 0-15 5.77-15 14 0 8.81 6.32 15 15 15s15-6.21 15-15c.05-8.22-7.17-14-15-14Zm25.41 6.9v4.55h11.23v6H91.52v4.67h11.67v6H84.45V1.59h18.74v6H91.52v-.01Z"/><path fill="#FDBD10" d="M227.98 6.89a3.43 3.43 0 1 0 0-6.86 3.43 3.43 0 0 0 0 6.86Z"/><path fill="#000" d="M294.15 3.21a1.709 1.709 0 1 1 3.418 0 1.709 1.709 0 0 1-3.418 0Zm1.72 2.15a2.116 2.116 0 0 0 1.976-1.327c.106-.262.158-.541.154-.823a2.139 2.139 0 1 0-4.27 0 2.125 2.125 0 0 0 .621 1.52 2.116 2.116 0 0 0 1.519.62v.01Zm-.45-2h.42l.64 1.07h.41l-.69-1.09a.636.636 0 0 0 .594-.425.65.65 0 0 0 .036-.255.686.686 0 0 0-.26-.524A.7.7 0 0 0 296 2h-.93v2.45h.37V3.38l-.02-.02Zm0-.32v-.75h.5c.26 0 .53.06.53.36s-.28.4-.59.4h-.44v-.01Z"/></g><defs><clipPath id="a"><path fill="#fff" d="M0 0h300v30.31H0z"/></clipPath></defs></svg>