<?xml version="1.0" encoding="UTF-8"?>
<svg width="142px" height="47px" viewBox="0 0 142 47" version="1.1" xmlns="http://www.w3.org/2000/svg" xmlns:xlink="http://www.w3.org/1999/xlink">
    <!-- Generator: Sketch 56.3 (81716) - https://sketch.com -->
    <title>Logo/Original/dior</title>
    <desc>Created with Sketch.</desc>
    <g id="Design" stroke="none" stroke-width="1" fill="none" fill-rule="evenodd">
        <g id="SFCC" transform="translate(-729.000000, -1400.000000)" fill="#000000">
            <g id="quote" transform="translate(0.000000, 1080.000000)">
                <g id="Intro-quote" transform="translate(320.000000, 80.000000)">
                    <g id="Logo/Original/ubisoft" transform="translate(364.000000, 232.000000)">
                        <g id="logo-ubisoft" transform="translate(45.963636, 8.727273)">
                            <path d="M34.1616478,37.1582959 C40.3439695,31.6555462 41.9277105,22.2426437 38.1415412,14.6498872 C34.3589389,7.06438772 25.6337265,2.66949412 17.3091232,4.21793428 C12.595169,5.09492041 8.76951689,7.43892106 5.98444018,11.3956906 C5.78309007,11.6817873 5.57165401,11.9453752 6.09563169,12.1629612 C6.2987038,12.0256938 6.51641284,11.8758805 6.73645886,11.7297571 C11.1349194,8.80618303 15.8755645,7.54125661 21.1537172,8.61356588 C28.2482029,10.0548735 35.4559711,17.3232804 33.5083977,26.937287 C32.1538047,33.6245215 26.4675398,38.0490579 19.9372526,37.0312374 C15.9715041,36.4130422 13.1752344,34.2209458 11.9602458,30.3636829 C10.8972845,26.9891928 11.6600041,23.8469256 13.7737498,21.0287621 C13.9802659,20.7534893 14.3095354,20.4935914 13.7586209,20.1908898 C10.4290256,22.0615885 8.39719753,26.5104789 9.08267351,30.5120202 C10.0231274,36.001855 13.2109043,39.622098 18.5361658,41.0912035 C24.4091439,42.7112294 29.6876656,41.1405263 34.1616478,37.1582959 Z M26.1506932,30.6150938 C25.6586953,30.2681123 25.1615315,29.9176868 24.6311579,29.5438915 C24.8769108,29.1880541 25.0995398,28.9158563 25.2684181,28.6136466 C26.2446648,26.8661933 26.2504457,25.1017661 25.1258617,23.4471774 C24.0076736,21.8019367 22.3808828,21.053485 20.3954256,21.3742676 C17.3883348,21.8601154 15.2670862,24.4123541 15.3389179,27.3436772 C15.4133326,30.3805338 17.6257238,32.7931681 20.6984962,33.1883654 C22.7474212,33.4518302 25.2172503,32.2992023 26.1506932,30.6150938 Z M5.47485343,26.4304062 C6.94568094,16.6370665 17.7099784,12.0500477 25.7718548,17.8087593 C26.9907795,18.6794724 28.002327,19.8435393 29.0916102,20.8906337 C29.360364,21.1489325 29.5733991,21.4021884 29.9887682,21.0082212 C28.4426651,16.3605637 25.2134373,13.4607285 20.519655,12.3732903 C15.1499907,11.1295198 10.4878193,12.670334 6.94432795,16.9027453 C3.6483115,20.8394659 2.98005545,25.357974 4.70167885,30.2476944 C5.20819061,30.2146075 5.25456141,29.9645496 5.26833735,29.6110492 C5.30917316,28.5493179 5.31766013,27.4777466 5.47485343,26.4304062 Z M17.8841457,0.290438618 C29.7174314,-1.14152106 41.3984439,6.73917715 43.3740611,19.2195631 C44.3430509,25.340754 43.4399889,31.1026636 39.7672251,36.1974241 C35.0777478,42.7023734 28.6292552,45.8612455 20.6206376,45.4852361 C10.2332104,44.9977893 1.62238744,37.0113115 0.213797656,26.717487 C-0.354336836,22.5663783 0.213305658,18.546756 1.87502832,14.6909691 C1.9719519,14.466126 2.06727647,14.240545 2.19494991,13.9411644 C1.59889454,13.5105433 1.03801702,13.1053831 0.440362656,12.673778 C1.41218137,10.853632 2.55730631,9.19203233 3.91595831,7.68430498 C7.66904075,3.51917437 12.2982483,0.966320635 17.8841457,0.290438618 Z M109.124048,24.6265208 C110.0554,21.634928 108.64189,17.321214 104.056594,17.6076798 C102.809133,17.6854154 101.678522,18.1085336 100.742496,19.146034 C100.960697,19.2927723 101.131912,19.4078998 101.343349,19.5500872 C101.083328,19.8632438 100.898952,20.0825519 100.717527,20.3041969 C99.3287405,22.0034344 99.3005736,24.6260288 100.695264,26.3218223 C101.964619,27.8653425 103.644668,28.3131835 105.553374,27.9534101 C107.427025,27.6004017 108.567845,26.4134569 109.124048,24.6265208 Z M103.182559,14.2088358 C106.525808,13.6943291 109.996114,15.1967674 111.705561,17.9273554 C114.123976,21.7902763 113.27282,27.1703956 109.82453,29.8157449 C106.37255,32.4642922 100.940033,32.0009532 97.9966563,28.8070263 C95.1905467,25.7619288 95.2942353,20.491525 98.2197774,17.553437 C98.3778317,17.3946447 98.5468329,17.2466764 98.7337921,17.0718941 C98.5491699,16.872635 98.3880406,16.6987138 98.1871825,16.4816197 C99.6164362,15.0986139 101.321455,14.4953015 103.182559,14.2088358 Z M73.02479,26.0727361 C73.0594758,24.9239212 72.563173,24.0764549 71.6034082,23.9331606 C70.6251936,23.7871602 69.622133,23.8080701 68.5986545,23.7541963 L68.5986545,27.9361779 C69.5853561,27.9361779 70.528024,28.0029666 71.4566699,27.917236 C72.3657589,27.8332273 72.9966231,27.00704 73.02479,26.0727361 Z M68.6130454,17.5860196 L68.6130454,21.1623518 C69.389172,21.1623518 70.1263078,21.1993746 70.8580315,21.1526348 C71.7030378,21.0987611 72.2757233,20.4880688 72.3730158,19.6381425 C72.4714154,18.7789913 72.0474363,17.936814 71.2860696,17.7969636 C70.4157255,17.6369413 69.5136475,17.6494873 68.6130454,17.5860196 Z M74.141502,22.2799249 C75.9162612,23.1086952 76.7654495,24.516424 76.6696329,26.4577244 C76.5700033,28.4722095 75.5488618,29.9031852 73.69526,30.6655358 C73.007939,30.9483116 72.2359944,31.1371158 71.4962757,31.1590097 C69.3317313,31.2232154 67.1639888,31.1818876 64.9565176,31.1818876 L64.9565176,14.5066052 C64.9926794,14.4800373 65.0244133,14.4362495 65.0557781,14.4364944 C67.3069142,14.4602344 69.5584193,14.4662613 71.8083253,14.5308361 C72.3056121,14.545104 72.8188889,14.7137363 73.2867788,14.9045084 C74.6549018,15.4625569 75.6823162,16.363405 75.8270866,17.932878 C75.9816969,19.6094836 75.6034736,21.0798192 73.9690568,21.9477033 C73.914445,21.9766082 73.8636463,22.012401 73.7728727,22.0687348 C73.9364619,22.1631984 74.0349845,22.2302331 74.141502,22.2799249 Z M63.0499522,14.3015405 C63.0627441,14.5299505 63.085253,14.7448305 63.085376,14.9594646 C63.087713,18.034451 63.101612,21.1095604 63.0762741,24.1843008 C63.0700011,24.9370575 63.0163733,25.7087561 62.8412221,26.4371589 C62.1329912,29.3836109 59.8595923,31.2626736 56.7880498,31.3519712 C55.7022106,31.3835821 54.5602837,31.2623046 53.5258582,30.943982 C50.9044938,30.1369826 49.4689671,28.1480814 49.3212448,25.5222889 C49.1141137,21.8438672 49.2372362,18.1469955 49.2211232,14.4579958 C49.2210002,14.4209729 49.2503971,14.3835811 49.279056,14.3145784 L52.8473932,14.3145784 L52.8473932,15.0170283 C52.8473932,17.9691383 52.8408743,20.9211253 52.8537892,23.8729892 C52.8558802,24.382576 52.88909,24.9026177 52.9958536,25.3989205 C53.3675579,27.1259559 54.5896805,28.0188089 56.3908846,27.9277893 C58.0508853,27.8440267 59.1642763,26.7718404 59.3529575,25.046527 C59.4153182,24.4774086 59.4492661,23.9025091 59.4514801,23.3299466 C59.462673,20.5624588 59.458737,17.7949711 59.46009,15.0274833 L59.46009,14.3015405 L63.0499522,14.3015405 Z M92.0464715,21.8305709 C93.4150865,22.4678311 94.4758338,23.402258 94.8298262,24.9707471 C95.5224362,28.0393375 93.5789217,30.9033799 90.4803194,31.3925487 C88.7265932,31.6694205 87.0545385,31.5143182 85.4802685,30.642006 C84.5192737,30.1094184 83.8104279,29.3431318 83.2957981,28.375741 C83.100598,28.0087107 83.097277,27.7619738 83.4719333,27.5013379 C84.2918477,26.9311124 85.0842102,26.3211581 85.8964986,25.7207978 C86.2144522,26.1858587 86.4472902,26.6002439 86.7498689,26.9548513 C87.5462904,27.8874332 88.5887108,28.2269117 89.7845115,28.0593864 C90.5089783,27.9576659 91.031357,27.5534897 91.2394721,26.8239799 C91.4515231,26.0806942 91.1886733,25.4569639 90.5911419,25.0451617 C90.0415804,24.6664464 89.4155131,24.3925266 88.8070348,24.1069219 C87.9197167,23.6901997 86.9834448,23.3664652 86.1297056,22.8923023 C84.3614654,21.9100286 83.5231011,20.3571604 83.7607361,18.3427983 C84.006366,16.2605405 85.3040103,14.9845442 87.2541667,14.4202226 C89.1541393,13.8704151 91.028036,14.0289614 92.7762273,15.030792 C93.6357475,15.5232818 94.2568947,16.2430746 94.6946498,17.2107113 C93.75641,17.8650684 92.8214911,18.5172116 91.8426614,19.1997356 C91.6907571,18.9601326 91.5576717,18.7372576 91.4124093,18.5226235 C90.6601446,17.4118154 89.3522914,16.9907883 88.1162698,17.4581862 C87.0582285,17.8581805 86.7843087,19.0121614 87.632267,19.7494201 C88.084167,20.1421574 88.6545155,20.4207512 89.208013,20.6692101 C90.1403489,21.0874082 91.1209006,21.3994578 92.0464715,21.8305709 Z M114.62467,31.2071147 L114.62467,14.4602467 L126.017741,14.4602467 L126.017741,17.8368278 L118.292637,17.8368278 L118.292637,21.7667834 L125.298932,21.7667834 L125.298932,24.5642831 L118.221912,24.5642831 L118.221912,31.2071147 L114.62467,31.2071147 Z M127.531458,14.4568519 L140.541357,14.4568519 L140.541357,17.8618459 L135.883736,17.8618459 L135.883736,31.187361 L132.225117,31.187361 L132.225117,17.8719318 L127.531458,17.8719318 L127.531458,14.4568519 Z M78.1465981,31.1854053 L78.1465981,14.4528052 L81.6979614,14.4528052 L81.6979614,31.1854053 L78.1465981,31.1854053 Z" id="Combined-Shape"></path>
                        </g>
                    </g>
                </g>
            </g>
        </g>
    </g>
</svg>